<svg width="40" height="40" viewBox="0 0 40 40" fill="none" xmlns="http://www.w3.org/2000/svg">
<path fill-rule="evenodd" clip-rule="evenodd" d="M19.5001 4.25322C16.1348 4.25322 14.0588 5.40646 12.9638 7.23148C11.9974 8.84213 11.9991 10.6991 12 11.6699L12.0001 11.7532L12.0001 11.7933C11.9999 12.8024 11.9995 15.2737 12.8456 17.5299C13.2818 18.6931 13.9732 19.8861 15.0838 20.7911C15.3348 20.9956 15.6021 21.1812 15.8859 21.3462C14.694 21.417 13.6386 21.5311 12.7042 21.6986C10.9137 22.0196 9.46209 22.554 8.32334 23.4487C6.026 25.2538 5.49868 28.1563 5.01514 31.5411C4.92028 32.2052 5.27929 32.8521 5.89229 33.1246C5.99182 33.1651 6.25302 33.2716 6.39777 33.3251C6.42923 33.3367 6.46214 33.3488 6.49648 33.3612C6.79918 33.4707 7.21366 33.6105 7.7379 33.7642C8.90548 34.1067 10.617 34.5187 12.85 34.8225C14.7102 35.0755 16.9313 35.2532 19.5001 35.2532C22.0688 35.2532 24.2899 35.0755 26.1501 34.8225C28.3831 34.5187 30.0946 34.1067 31.2622 33.7642C31.846 33.593 32.2936 33.4392 32.6024 33.3251C32.7471 33.2716 33.0083 33.1651 33.1078 33.1246C33.7208 32.8521 34.0799 32.2052 33.985 31.5411C33.5015 28.1563 32.9741 25.2538 30.6768 23.4487C29.538 22.554 28.0864 22.0196 26.296 21.6986C25.3615 21.5311 24.3061 21.417 23.1142 21.3462C23.398 21.1812 23.6653 20.9956 23.9163 20.7911C25.0269 19.8861 25.7184 18.6931 26.1546 17.5299C27.0006 15.2737 27.0002 12.8024 27.0001 11.7933L27.0001 11.7532L27.0001 11.6699C27.001 10.6991 27.0027 8.84213 26.0363 7.23148C25.5861 6.48107 24.97 5.84424 24.1666 5.35445C24.0674 5.294 23.9654 5.23578 23.8605 5.17987C23.744 5.11775 23.6238 5.05846 23.5 5.00211C22.4429 4.52079 21.121 4.25322 19.5001 4.25322ZM8.16856 30.7597C8.29529 30.7997 8.43322 30.8418 8.58228 30.8855C9.34847 31.1102 10.4092 31.3775 11.7556 31.6159L12.0117 29.5672C12.1144 28.7451 12.8641 28.162 13.6861 28.2648C13.8416 28.2842 13.9885 28.3268 14.1239 28.3886C14.1509 28.401 14.1774 28.4141 14.2035 28.4279C14.3604 28.5113 14.4998 28.6213 14.6164 28.7512C14.8963 29.0634 15.0446 29.4906 14.9885 29.9393L14.728 32.0232C16.1317 32.1634 17.724 32.2532 19.5001 32.2532C21.2761 32.2532 22.8684 32.1634 24.2721 32.0232L24.0116 29.9393C23.9089 29.1172 24.492 28.3676 25.314 28.2648C25.6007 28.229 25.8787 28.2766 26.1234 28.3886C26.1497 28.4007 26.1757 28.4135 26.2013 28.4271C26.3574 28.5098 26.4981 28.6196 26.6163 28.751C26.8141 28.9709 26.949 29.2514 26.9885 29.5672L27.2446 31.6159C28.591 31.3775 29.6517 31.1102 30.4179 30.8855C30.5669 30.8418 30.7048 30.7997 30.8316 30.7597C30.376 27.9796 29.8831 26.6404 28.8233 25.8077C28.2121 25.3274 27.2887 24.9244 25.7667 24.6516C24.2411 24.3781 22.2201 24.2532 19.5001 24.2532C16.78 24.2532 14.7591 24.3781 13.2335 24.6516C11.7114 24.9244 10.788 25.3274 10.1768 25.8077C9.11706 26.6404 8.62411 27.9796 8.16856 30.7597ZM15.5363 8.77496C15.0311 9.61694 15.0001 10.6979 15.0001 11.7532C15.0001 12.7708 15.0121 14.7632 15.6546 16.4765C15.9684 17.3133 16.4019 17.9953 16.9788 18.4654C17.5324 18.9164 18.315 19.2532 19.5001 19.2532C20.6851 19.2532 21.4678 18.9164 22.0213 18.4654C22.5982 17.9953 23.0318 17.3133 23.3456 16.4765C23.9881 14.7632 24.0001 12.7708 24.0001 11.7532C24.0001 10.6979 23.969 9.61694 23.4638 8.77496C23.0588 8.09998 22.1348 7.25322 19.5001 7.25322C16.8654 7.25322 15.9413 8.09998 15.5363 8.77496Z" fill="#E33700"/>
<path fill-rule="evenodd" clip-rule="evenodd" d="M20.5001 4.74677C17.1348 4.74677 15.0588 5.90001 13.9638 7.72502C12.9974 9.33567 12.9991 11.1926 13 12.1634L13.0001 12.2468L13.0001 12.2868C12.9999 13.296 12.9995 15.7673 13.8456 18.0234C14.2818 19.1866 14.9732 20.3797 16.0838 21.2846C16.3348 21.4891 16.6021 21.6747 16.8859 21.8398C15.694 21.9106 14.6386 22.0247 13.7042 22.1922C11.9137 22.5131 10.4621 23.0476 9.32334 23.9423C7.026 25.7473 6.49868 28.6499 6.01514 32.0346C5.94312 32.5388 6.13273 33.0331 6.49648 33.3612C6.58268 33.4389 6.67865 33.5073 6.78325 33.5643C6.81863 33.5836 6.85499 33.6015 6.89229 33.6181C6.99182 33.6587 7.25302 33.7651 7.39777 33.8186C7.70653 33.9328 8.15417 34.0866 8.7379 34.2578C9.90548 34.6002 11.617 35.0123 13.85 35.316C15.7102 35.569 17.9313 35.7468 20.5001 35.7468C23.0688 35.7468 25.2899 35.569 27.1501 35.316C29.3831 35.0123 31.0946 34.6002 32.2622 34.2578C32.846 34.0866 33.2936 33.9328 33.6024 33.8186C33.7471 33.7651 34.0083 33.6587 34.1078 33.6181C34.7208 33.3457 35.0799 32.6987 34.985 32.0346C34.5015 28.6499 33.9741 25.7473 31.6768 23.9423C30.538 23.0476 29.0864 22.5131 27.296 22.1922C26.3615 22.0247 25.3061 21.9106 24.1142 21.8398C24.398 21.6747 24.6653 21.4891 24.9163 21.2846C26.0269 20.3797 26.7184 19.1866 27.1546 18.0235C28.0006 15.7673 28.0002 13.296 28.0001 12.2868L28.0001 12.2468L28.0001 12.1634C28.001 11.1926 28.0027 9.33567 27.0363 7.72502C26.5286 6.87878 25.8099 6.17697 24.8496 5.66761C24.7401 5.60951 24.6274 5.55392 24.5115 5.5009C24.3995 5.44966 24.2846 5.40082 24.1666 5.35445C23.1688 4.96229 21.9549 4.74677 20.5001 4.74677ZM9.16856 31.2532C9.29529 31.2932 9.43322 31.3353 9.58228 31.3791C10.3485 31.6038 11.4092 31.871 12.7556 32.1094L13.0117 30.0607C13.1115 29.262 13.8221 28.6889 14.6164 28.7512C14.6395 28.7531 14.6628 28.7554 14.6861 28.7583C14.8439 28.7781 14.9928 28.8216 15.1298 28.8849C15.1528 28.8955 15.1754 28.9067 15.1976 28.9184C15.735 29.2007 16.0682 29.795 15.9885 30.4328L15.728 32.5168C17.1317 32.657 18.724 32.7468 20.5001 32.7468C22.2761 32.7468 23.8684 32.657 25.2721 32.5168L25.0116 30.4328C24.9089 29.6108 25.492 28.8611 26.314 28.7583C26.4163 28.7456 26.5174 28.7434 26.6163 28.751C26.7964 28.7648 26.9691 28.8109 27.1277 28.8842C27.1511 28.895 27.1743 28.9064 27.1971 28.9184C27.6167 29.139 27.9252 29.5546 27.9885 30.0607L28.2446 32.1094C29.591 31.871 30.6517 31.6038 31.4179 31.3791C31.5669 31.3353 31.7048 31.2932 31.8316 31.2532C31.376 28.4732 30.8831 27.1339 29.8233 26.3012C29.2121 25.821 28.2887 25.4179 26.7667 25.1451C25.2411 24.8717 23.2201 24.7468 20.5001 24.7468C17.78 24.7468 15.7591 24.8717 14.2335 25.1451C12.7114 25.4179 11.788 25.821 11.1768 26.3012C10.1171 27.1339 9.62411 28.4732 9.16856 31.2532ZM16.5363 9.26851C16.0311 10.1105 16.0001 11.1915 16.0001 12.2468C16.0001 13.2644 16.0121 15.2567 16.6546 16.9701C16.9684 17.8069 17.4019 18.4889 17.9788 18.9589C18.5324 19.4099 19.315 19.7468 20.5001 19.7468C21.6851 19.7468 22.4678 19.4099 23.0213 18.9589C23.5982 18.4889 24.0318 17.8069 24.3456 16.9701C24.9881 15.2567 25.0001 13.2644 25.0001 12.2468C25.0001 11.1915 24.969 10.1105 24.4638 9.26851C24.0588 8.59352 23.1348 7.74677 20.5001 7.74677C17.8654 7.74677 16.9413 8.59352 16.5363 9.26851Z" fill="#E33700"/>
<path d="M23.8605 5.17987C23.9654 5.23578 24.0674 5.294 24.1666 5.35445C24.2846 5.40082 24.3995 5.44966 24.5115 5.5009L23.8605 5.17987Z" fill="#E33700"/>
<path d="M14.6164 28.7512C14.6395 28.7531 14.6628 28.7554 14.6861 28.7583C14.8439 28.7781 14.9928 28.8216 15.1298 28.8849L14.2035 28.4279C14.3604 28.5113 14.4998 28.6213 14.6164 28.7512Z" fill="#E33700"/>
<path d="M26.2013 28.4271C26.3574 28.5098 26.4981 28.6196 26.6163 28.751C26.7964 28.7648 26.9691 28.8109 27.1277 28.8842L26.2013 28.4271Z" fill="#E33700"/>
<path d="M6.49648 33.3612C6.46214 33.3488 6.42923 33.3367 6.39777 33.3251C6.25302 33.2716 5.99182 33.1651 5.89229 33.1246L6.78325 33.5643C6.67865 33.5073 6.58268 33.4389 6.49648 33.3612Z" fill="#E33700"/>
<path d="M13.485 29.7468L13.0371 33.3297M25.485 29.7468L25.9328 33.3297M25.9328 33.3297C30.2423 32.7435 32.485 31.7468 32.485 31.7468C31.485 24.7468 30.485 22.7468 19.485 22.7468C8.48498 22.7468 7.48499 24.7468 6.48499 31.7468C6.48499 31.7468 8.72767 32.7435 13.0371 33.3297M25.9328 33.3297C24.1379 33.5738 21.9844 33.7468 19.485 33.7468C16.9856 33.7468 14.8321 33.5738 13.0371 33.3297M19.485 5.74677C25.485 5.74677 25.485 9.74677 25.485 11.7468C25.485 13.7468 25.485 20.7468 19.485 20.7468C13.485 20.7468 13.485 13.7468 13.485 11.7468C13.485 9.74677 13.485 5.74677 19.485 5.74677Z" stroke="#FF5B18" stroke-width="3" stroke-linecap="round" stroke-linejoin="round"/>
</svg>
