<svg width="40" height="40" viewBox="0 0 40 40" fill="none" xmlns="http://www.w3.org/2000/svg">
<rect x="4" y="5.25" width="33" height="10" stroke="#E33700" stroke-width="3" stroke-linejoin="round"/>
<rect x="17.5" y="8.75" width="6" height="3" rx="1.5" fill="#E33700"/>
<rect x="8.5" y="8.75" width="6" height="3" rx="1.5" fill="#E33700"/>
<rect x="26.5" y="8.75" width="6" height="3" rx="1.5" fill="#E33700"/>
<rect x="4" y="15.25" width="33" height="10" stroke="#E33700" stroke-width="3" stroke-linejoin="round"/>
<rect x="17.5" y="18.75" width="6" height="3" rx="1.5" fill="#E33700"/>
<rect x="8.5" y="18.75" width="6" height="3" rx="1.5" fill="#E33700"/>
<rect x="26.5" y="18.75" width="6" height="3" rx="1.5" fill="#E33700"/>
<rect x="4" y="25.25" width="33" height="10" stroke="#E33700" stroke-width="3" stroke-linejoin="round"/>
<rect x="17.5" y="28.75" width="6" height="3" rx="1.5" fill="#E33700"/>
<rect x="8.5" y="28.75" width="6" height="3" rx="1.5" fill="#E33700"/>
<rect x="26.5" y="28.75" width="6" height="3" rx="1.5" fill="#E33700"/>
<rect x="3" y="4.75" width="33" height="10" stroke="#FF5B18" stroke-width="3" stroke-linejoin="round"/>
<rect x="16.5" y="8.25" width="6" height="3" rx="1.5" fill="#FF5B18"/>
<rect x="7.5" y="8.25" width="6" height="3" rx="1.5" fill="#FF5B18"/>
<rect x="25.5" y="8.25" width="6" height="3" rx="1.5" fill="#FF5B18"/>
<rect x="3" y="14.75" width="33" height="10" stroke="#FF5B18" stroke-width="3" stroke-linejoin="round"/>
<rect x="16.5" y="18.25" width="6" height="3" rx="1.5" fill="#FF5B18"/>
<rect x="7.5" y="18.25" width="6" height="3" rx="1.5" fill="#FF5B18"/>
<rect x="25.5" y="18.25" width="6" height="3" rx="1.5" fill="#FF5B18"/>
<rect x="3" y="24.75" width="33" height="10" stroke="#FF5B18" stroke-width="3" stroke-linejoin="round"/>
<rect x="16.5" y="28.25" width="6" height="3" rx="1.5" fill="#FF5B18"/>
<rect x="7.5" y="28.25" width="6" height="3" rx="1.5" fill="#FF5B18"/>
<rect x="25.5" y="28.25" width="6" height="3" rx="1.5" fill="#FF5B18"/>
</svg>
