<svg width="148" height="37" viewBox="0 0 148 37" fill="none" xmlns="http://www.w3.org/2000/svg">
<path fill-rule="evenodd" clip-rule="evenodd" d="M11.545 0C10.9125 0 10.3058 0.251276 9.85855 0.69855L0.69855 9.85855C0.251276 10.3058 0 10.9125 0 11.545V12.545C0 12.5683 0.000333944 12.5915 0.000997305 12.6146V36.185H3.649L4.769 33.945C5.23833 34.521 5.83566 35.0437 6.561 35.513C7.30766 35.961 8.321 36.185 9.601 36.185C11.6063 36.185 13.2277 35.417 14.465 33.881C15.7023 32.345 16.321 30.0837 16.321 27.097C16.321 24.1317 15.713 21.8917 14.497 20.377C13.281 18.841 11.6917 18.073 9.729 18.073C8.47033 18.073 7.44633 18.329 6.657 18.841C5.86766 19.3317 5.23833 19.9397 4.769 20.665V12.6148C4.76966 12.5916 4.77 12.5684 4.77 12.545V12.5329L11.545 5.7579L18.32 12.5329V12.545C18.32 12.5683 18.3203 12.5915 18.321 12.6147V36.185H23.089V13.93H61.313V36.185H66.081V27.961C66.081 26.105 66.3477 24.6863 66.881 23.705C67.4357 22.7023 68.4277 22.201 69.857 22.201C71.7343 22.201 72.673 23.4597 72.673 25.977V36.185H77.441V24.793C77.441 22.553 76.865 20.9317 75.713 19.929C74.561 18.905 73.0463 18.393 71.169 18.393C70.1023 18.393 69.1317 18.5957 68.257 19.001C67.3823 19.4063 66.6357 20.057 66.081 20.953V12.615C66.0817 12.5917 66.082 12.5684 66.082 12.545V11.545C66.082 10.9125 65.8307 10.3058 65.3835 9.85855L56.2235 0.69855C55.7762 0.251276 55.1695 0 54.537 0H11.545ZM21.6929 9.16L17.3029 4.77H53.5491L57.9391 9.16H21.6929ZM8.193 21.881C6.95566 21.881 6.081 22.2757 5.569 23.065C5.057 23.833 4.79033 24.9957 4.769 26.553V27.065C4.769 28.7503 5.01433 30.0517 5.505 30.969C6.017 31.865 6.93433 32.313 8.257 32.313C9.23833 32.313 10.017 31.865 10.593 30.969C11.169 30.0517 11.457 28.7397 11.457 27.033C11.457 25.3263 11.1583 24.0463 10.561 23.193C9.985 22.3183 9.19566 21.881 8.193 21.881ZM41.217 18.393V36.185H37.569L36.449 33.945C35.8943 34.841 35.3503 35.1717 34.369 35.577C33.409 35.9823 32.385 36.185 31.297 36.185C29.4197 36.185 27.9157 35.6837 26.785 34.681C25.6543 33.657 25.089 32.025 25.089 29.785V18.393H29.857V28.601C29.857 29.8597 30.081 30.809 30.529 31.449C30.977 32.0677 31.6917 32.377 32.673 32.377C34.1237 32.377 35.1157 31.8863 35.649 30.905C36.1823 29.9023 36.449 28.473 36.449 26.617V18.393H41.217ZM57.201 20.153C55.793 18.7663 53.8837 18.073 51.473 18.073C49.8303 18.073 48.3903 18.4143 47.153 19.097C45.9157 19.7797 44.945 20.8037 44.241 22.169C43.5583 23.5343 43.217 25.2303 43.217 27.257C43.217 29.2837 43.601 30.9583 44.369 32.281C45.137 33.5823 46.193 34.5637 47.537 35.225C48.881 35.865 50.4277 36.185 52.177 36.185C53.521 36.185 54.6623 36.0783 55.601 35.865C56.5397 35.673 57.4463 35.3637 58.321 34.937V31.257C57.3397 31.7263 56.3797 32.0783 55.441 32.313C54.5237 32.5263 53.5103 32.633 52.401 32.633C51.057 32.633 50.001 32.249 49.233 31.481C48.4863 30.713 48.0917 29.657 48.049 28.313H59.313V26.009C59.313 23.4703 58.609 21.5183 57.201 20.153ZM49.201 22.361C49.7983 21.7637 50.5663 21.465 51.505 21.465C52.6143 21.465 53.4357 21.817 53.969 22.521C54.5237 23.225 54.8117 24.0997 54.833 25.145H48.145C48.2517 23.8863 48.6037 22.9583 49.201 22.361ZM94.065 33.817C95.601 32.2383 96.369 29.9983 96.369 27.097C96.369 25.177 96.0063 23.545 95.281 22.201C94.5557 20.857 93.5637 19.833 92.305 19.129C91.0463 18.425 89.5957 18.073 87.953 18.073C85.3077 18.073 83.2277 18.8517 81.713 20.409C80.1983 21.9663 79.441 24.1957 79.441 27.097C79.441 29.0383 79.8037 30.6917 80.529 32.057C81.2543 33.401 82.2463 34.425 83.505 35.129C84.785 35.833 86.2357 36.185 87.857 36.185C90.481 36.185 92.5503 35.3957 94.065 33.817ZM85.137 31.033C84.5823 30.137 84.305 28.825 84.305 27.097C84.305 25.369 84.5823 24.0783 85.137 23.225C85.713 22.3503 86.6303 21.913 87.889 21.913C89.169 21.913 90.0863 22.3503 90.641 23.225C91.217 24.0783 91.505 25.369 91.505 27.097C91.505 28.825 91.217 30.137 90.641 31.033C90.0863 31.9077 89.1797 32.345 87.921 32.345C86.641 32.345 85.713 31.9077 85.137 31.033ZM114.497 18.393V36.185H110.849L109.729 33.945C109.174 34.841 108.63 35.1717 107.649 35.577C106.689 35.9823 105.665 36.185 104.577 36.185C102.7 36.185 101.196 35.6837 100.065 34.681C98.9343 33.657 98.369 32.025 98.369 29.785V18.393H103.137V28.601C103.137 29.8597 103.361 30.809 103.809 31.449C104.257 32.0677 104.972 32.377 105.953 32.377C107.404 32.377 108.396 31.8863 108.929 30.905C109.462 29.9023 109.729 28.473 109.729 26.617V18.393H114.497ZM127.857 34.777C129.116 33.817 129.745 32.4517 129.745 30.681C129.745 29.657 129.542 28.8143 129.137 28.153C128.753 27.4917 128.198 26.9477 127.473 26.521C126.748 26.073 125.884 25.6463 124.881 25.241C123.857 24.8143 123.078 24.473 122.545 24.217C122.033 23.961 121.681 23.7263 121.489 23.513C121.318 23.2783 121.233 23.0223 121.233 22.745C121.233 21.977 121.937 21.593 123.345 21.593C124.134 21.593 124.913 21.721 125.681 21.977C126.449 22.2117 127.26 22.5103 128.113 22.873L129.553 19.449C128.508 18.9583 127.494 18.6063 126.513 18.393C125.532 18.1797 124.497 18.073 123.409 18.073C121.318 18.073 119.644 18.4783 118.385 19.289C117.126 20.0997 116.497 21.3157 116.497 22.937C116.497 23.9183 116.668 24.7397 117.009 25.401C117.35 26.041 117.862 26.5957 118.545 27.065C119.249 27.513 120.156 27.9717 121.265 28.441C122.396 28.9103 123.228 29.2943 123.761 29.593C124.294 29.8917 124.636 30.1583 124.785 30.393C124.956 30.6277 125.041 30.8943 125.041 31.193C125.041 31.641 124.838 32.0037 124.433 32.281C124.028 32.5583 123.366 32.697 122.449 32.697C121.617 32.697 120.657 32.5583 119.569 32.281C118.481 32.0037 117.468 31.6517 116.529 31.225V35.161C117.404 35.5237 118.278 35.7797 119.153 35.929C120.028 36.0997 121.073 36.185 122.289 36.185C124.764 36.185 126.62 35.7157 127.857 34.777ZM139.393 18.073C141.804 18.073 143.713 18.7663 145.121 20.153C146.529 21.5183 147.233 23.4703 147.233 26.009V28.313H135.969C136.012 29.657 136.406 30.713 137.153 31.481C137.921 32.249 138.977 32.633 140.321 32.633C141.43 32.633 142.444 32.5263 143.361 32.313C144.3 32.0783 145.26 31.7263 146.241 31.257V34.937C145.366 35.3637 144.46 35.673 143.521 35.865C142.582 36.0783 141.441 36.185 140.097 36.185C138.348 36.185 136.801 35.865 135.457 35.225C134.113 34.5637 133.057 33.5823 132.289 32.281C131.521 30.9583 131.137 29.2837 131.137 27.257C131.137 25.2303 131.478 23.5343 132.161 22.169C132.865 20.8037 133.836 19.7797 135.073 19.097C136.31 18.4143 137.75 18.073 139.393 18.073ZM139.425 21.465C138.486 21.465 137.718 21.7637 137.121 22.361C136.524 22.9583 136.172 23.8863 136.065 25.145H142.753C142.732 24.0997 142.444 23.225 141.889 22.521C141.356 21.817 140.534 21.465 139.425 21.465Z" fill="url(#paint0_linear)"/>
<defs>
<linearGradient id="paint0_linear" x1="73.616" y1="0" x2="73.616" y2="36.185" gradientUnits="userSpaceOnUse">
<stop stop-color="white"/>
<stop offset="0.489883" stop-color="#DAEBFF"/>
<stop offset="1" stop-color="#DAEBFF"/>
</linearGradient>
</defs>
</svg>
