<svg width="46" height="40" viewBox="0 0 46 40" fill="none" xmlns="http://www.w3.org/2000/svg">
<path d="M16.5 29V37.3228C8.01928 36.1097 1.5 28.8162 1.5 20C1.5 10.335 9.33502 2.5 19 2.5C28.665 2.5 36.5 10.335 36.5 20C36.5 28.8162 29.9807 36.1097 21.5 37.3228V29C21.5 28.5 21.3 27.3 20.5 26.5M16.5 29C15.1667 30 11.7 31.6 10.5 30C9 28 9 27.5 7.5 26.5M16.5 29C16.5 28.5 16.7 27.3 17.5 26.5M17.5 26.5C13.6667 26.1667 6.90003 23.4 10.5 15C10 14 9.3 11.7 10.5 10.5C11.6667 10.6667 14.2 11.3 15 12.5C15.8333 12.3333 17.8 12 19 12C20.2 12 22.1667 12.3333 23 12.5C23.8 11.3 26.3333 10.6667 27.5 10.5C28.7 11.7 28 14 27.5 15C31.1 23.4 24.3333 26.1667 20.5 26.5M17.5 26.5C18.5 26.6 19.5 26.6 20.5 26.5" stroke="#FF5B18" stroke-width="3" stroke-linecap="round" stroke-linejoin="round"/>
</svg>
