<svg width="199" height="46" viewBox="0 0 199 46" fill="none" xmlns="http://www.w3.org/2000/svg">
<path d="M125.286 42.9772C125.286 42.9775 125.287 42.9778 125.288 42.9781C126.051 43.3134 126.88 43.4635 127.746 43.4635C129.251 43.4635 130.607 43.0068 131.657 41.9817C132.75 40.9467 133.246 39.5804 133.246 38.0494C133.246 36.5184 132.75 35.1521 131.657 34.1171C131.249 33.7194 130.786 33.3987 130.273 33.1589L130.507 33.1917C131.68 33.3565 132.758 32.5183 132.886 31.3403L132.886 31.3403L135.519 7.25289C135.604 6.4712 135.248 5.74863 134.664 5.32458C134.598 5.27671 134.528 5.23429 134.455 5.19776L134.282 5.11091L128.414 2.16907C128.155 2.03164 127.864 1.94692 127.556 1.92852L120.463 1.50378L120.463 1.50378C119.267 1.43214 118.253 2.37473 118.238 3.57317L118.238 3.57318L117.933 27.416L119.433 27.4351L117.933 27.416C117.923 28.1661 118.311 28.8367 118.906 29.2154C118.95 29.2427 118.994 29.2679 119.04 29.2908L120.122 29.8327C119.258 30.056 118.473 30.4731 117.801 31.1061C117.793 31.1134 117.785 31.1208 117.778 31.1283C116.718 32.1691 116.246 33.5325 116.246 35.0494C116.246 36.5663 116.718 37.9297 117.778 38.9706C117.785 38.978 117.793 38.9854 117.801 38.9927C118.264 39.4289 118.792 39.772 119.378 40.0167L124.847 42.7593C124.99 42.8387 125.136 42.9113 125.286 42.9772Z" fill="#FF7A00" stroke="#E33700" stroke-width="3" stroke-linejoin="round"/>
<path d="M120.373 3.00109C120.032 2.98063 119.742 3.24994 119.738 3.59235L119.433 27.4351C119.429 27.7372 119.65 27.995 119.949 28.037L124.715 28.7063C125.051 28.7534 125.358 28.5139 125.395 28.1773L128.027 4.08994C128.065 3.74905 127.809 3.44633 127.467 3.42584L120.373 3.00109Z" fill="#FFA95A"/>
<path d="M118.829 37.9004C119.582 38.6091 120.554 38.9635 121.746 38.9635C122.939 38.9635 123.895 38.6091 124.617 37.9004C125.37 37.1917 125.746 36.2414 125.746 35.0494C125.746 33.8575 125.37 32.9071 124.617 32.1984C123.895 31.4897 122.939 31.1353 121.746 31.1353C120.554 31.1353 119.582 31.4897 118.829 32.1984C118.107 32.9071 117.746 33.8575 117.746 35.0494C117.746 36.2414 118.107 37.1917 118.829 37.9004Z" fill="#FFA95A"/>
<path d="M144.521 41.9635V40.8385L149.455 43.3051C149.663 43.4093 149.892 43.4635 150.125 43.4635H156.365C157.194 43.4635 157.865 42.7919 157.865 41.9635V39.9919C157.986 40.1196 158.128 40.2259 158.287 40.3051L164.287 43.3051C164.656 43.49 165.086 43.5141 165.474 43.3718L171.234 41.2598C171.635 41.1128 171.954 40.8018 172.112 40.4049C172.269 40.0079 172.25 39.5627 172.059 39.1807C171.995 39.0518 171.934 38.9191 171.877 38.7823C171.912 38.8007 171.948 38.819 171.983 38.8371L171.998 38.8447L178.892 42.2522C178.925 42.2684 178.958 42.2834 178.992 42.2972C180.941 43.089 183.162 43.4635 185.621 43.4635C187.701 43.4635 189.677 43.0747 191.534 42.2889L191.556 42.2793C193.404 41.4619 194.956 40.3405 196.174 38.9004C196.67 38.3142 196.644 37.4481 196.112 36.8936L192.8 33.4376C192.681 33.3135 192.542 33.2107 192.388 33.1339L186.388 30.1339C185.82 29.8498 185.135 29.9544 184.677 30.395C183.934 31.11 183.186 31.5998 182.437 31.9017C182.004 32.0648 181.521 32.1847 180.983 32.255C180.796 31.608 180.689 30.8197 180.689 29.8675C180.689 27.7168 181.213 26.4128 181.978 25.6482L180.917 24.5875L181.978 25.6482C182.785 24.8411 183.951 24.3595 185.669 24.3595C186.367 24.3595 187.027 24.4304 187.653 24.5685L191.431 26.4571C192.164 26.824 193.057 26.5333 193.434 25.8046L195.594 21.6286C195.894 21.0484 195.784 20.3407 195.322 19.8788C194.37 18.9273 193.198 18.1638 191.839 17.5693L186.793 15.0311C186.232 14.7316 185.634 14.4659 184.999 14.2321C183.248 13.5548 181.37 13.2235 179.381 13.2235C175.168 13.2235 171.669 14.3779 169.08 16.8559C168.636 17.281 168.23 17.7354 167.862 18.2184C167.255 17.7223 166.578 17.3183 165.837 17.0074L160.361 14.2479L160.357 14.2461C158.953 13.5431 157.333 13.2235 155.549 13.2235C153.75 13.2235 152.112 13.5401 150.684 14.2314C150.002 14.5465 149.354 14.9524 148.741 15.4407L146.386 14.2734C145.203 13.5572 143.856 13.2235 142.397 13.2235C140.86 13.2235 139.408 13.61 138.067 14.3731C137.988 14.4165 137.909 14.4612 137.831 14.5072L135.58 13.3819C135.193 13.1884 134.742 13.1714 134.341 13.3352L129.061 15.4952C128.679 15.6518 128.378 15.9594 128.229 16.3454C128.081 16.7315 128.098 17.1616 128.278 17.5342C128.654 18.3153 128.872 18.9685 128.97 19.5038C128.973 19.5253 128.978 19.5467 128.983 19.5679C129.111 20.1339 129.185 20.8491 129.185 21.7315V38.9635C129.185 39.5317 129.506 40.051 130.015 40.3051L136.015 43.3051C136.223 43.4093 136.452 43.4635 136.685 43.4635H143.021C143.85 43.4635 144.521 42.7919 144.521 41.9635Z" fill="#FF4A10" stroke="#E33700" stroke-width="3" stroke-linejoin="round"/>
<path d="M158.957 38.9635C158.413 38.0035 158.013 37.0115 157.757 35.9875C157.533 34.9315 157.421 33.7475 157.421 32.4355V24.6115C157.421 22.9795 157.149 21.7795 156.605 21.0115C156.061 20.2435 155.245 19.8595 154.157 19.8595C151.629 19.8595 150.365 21.4435 150.365 24.6115V38.9635H144.125V24.5635C144.125 22.8675 143.869 21.6675 143.357 20.9635C142.877 20.2275 142.093 19.8595 141.005 19.8595C139.629 19.8595 138.621 20.3555 137.981 21.3475C137.341 22.3075 137.021 23.7635 137.021 25.7155V38.9635H130.685V21.7315C130.685 20.7715 130.605 19.9395 130.445 19.2355C130.317 18.5315 130.045 17.7475 129.629 16.8835L134.909 14.7235C135.197 15.2355 135.453 15.8435 135.677 16.5475C135.933 17.2515 136.077 17.8595 136.109 18.3715C136.781 17.1875 137.677 16.2915 138.797 15.6835C139.917 15.0435 141.117 14.7235 142.397 14.7235C144.925 14.7235 146.797 15.9075 148.013 18.2755C149.037 17.0275 150.141 16.1315 151.325 15.5875C152.509 15.0115 153.917 14.7235 155.549 14.7235C158.173 14.7235 160.189 15.4915 161.597 17.0275C163.037 18.5635 163.757 20.5795 163.757 23.0755V32.2915C163.757 34.0515 164.077 35.5715 164.717 36.8515L158.957 38.9635Z" fill="white"/>
<path d="M170.165 35.7475C172.437 37.8915 175.589 38.9635 179.621 38.9635C181.509 38.9635 183.285 38.6115 184.949 37.9075C186.613 37.1715 187.973 36.1795 189.029 34.9315L185.717 31.4755C184.853 32.3075 183.941 32.9155 182.981 33.2995C182.053 33.6515 180.997 33.8275 179.813 33.8275C177.733 33.8275 176.101 33.2515 174.917 32.0995C173.765 30.9475 173.189 29.2035 173.189 26.8675C173.189 24.4995 173.765 22.7395 174.917 21.5875C176.069 20.4355 177.653 19.8595 179.669 19.8595C182.101 19.8595 184.245 20.6115 186.101 22.1155L188.261 17.9395C187.301 16.9795 186.037 16.2115 184.469 15.6355C182.901 15.0275 181.205 14.7235 179.381 14.7235C175.445 14.7235 172.357 15.7955 170.117 17.9395C167.877 20.0835 166.757 23.0595 166.757 26.8675C166.757 30.6435 167.893 33.6035 170.165 35.7475Z" fill="white"/>
<mask id="path-5-outside-1" maskUnits="userSpaceOnUse" x="0" y="-0.993805" width="126" height="47" fill="black">
<rect fill="white" y="-0.993805" width="126" height="47"/>
<path fill-rule="evenodd" clip-rule="evenodd" d="M46.5 37.8115C46.7452 37.9599 47.0181 38.0984 47.3217 38.2244L46.5 37.8115ZM36.7857 5.23341L37.2342 5.45739C37.09 5.37355 36.9405 5.29888 36.7857 5.23341ZM42.8359 8.25505L43.1871 8.43042C43.0733 8.36633 42.9563 8.30788 42.8359 8.25505ZM104.597 15.4041L104.663 15.4373C104.642 15.4248 104.62 15.4137 104.597 15.4041ZM122.135 19.9984C121.662 19.7136 121.193 19.4809 120.728 19.2951L122.135 19.9984ZM67.6127 40.8779L68.2244 41.1831C68.0042 41.0877 67.8007 40.9856 67.6127 40.8779Z"/>
<path fill-rule="evenodd" clip-rule="evenodd" d="M91.268 15.6744C91.5577 15.8024 91.8391 15.9431 92.1123 16.0964L91.268 15.6744Z"/>
<path fill-rule="evenodd" clip-rule="evenodd" d="M10.6609 3.42561L4.58951 3.00764C4.24274 2.98377 3.9483 3.25863 3.9483 3.60622V31.8601C3.9483 32.9877 3.85215 33.938 3.65984 34.7111C3.52032 35.2487 3.32175 35.7863 3.06414 36.3238C2.93074 36.6022 3.01206 36.933 3.24645 37.1085L3.46018 37.2156L9.27762 40.1303C9.31117 40.1522 9.34749 40.1711 9.38641 40.1865L13.5035 41.8108C13.7363 41.9026 14.0038 41.8419 14.1598 41.6461C14.6213 41.0666 14.97 40.4304 15.2058 39.7374C15.3796 39.2267 16.1226 39.0245 16.5092 39.4007C18.2316 41.077 20.3875 41.9152 22.9771 41.9152C24.9643 41.9152 26.7752 41.4158 28.4098 40.4172C29.2972 39.8684 30.08 39.2054 30.7584 38.4283V38.4635L36.7584 41.4635L42.0944 41.9635L43.7976 22.9891L45.0249 23.6027L44.3242 33.4116C44.3242 34.4073 44.3242 36.4956 46.5 37.8115L47.3217 38.2244L52.6922 40.9226C53.0216 41.1043 53.3968 41.2692 53.8242 41.4116C57.4242 42.6116 61.1576 41.5783 62.3242 40.9116L61.2334 37.6392C61.4754 37.8013 61.8083 37.995 62.1134 38.1338L67.6127 40.8779L68.2244 41.1831C68.412 41.2644 68.6116 41.3408 68.8242 41.4116C72.4242 42.6116 76.1576 41.5783 77.3242 40.9116L75.8242 36.4116C74.9909 36.745 73.8242 36.9116 72.8242 36.4116C72.1537 36.0764 71.9328 35.5163 71.86 34.4298C71.8242 33.896 71.8242 33.2352 71.8242 32.4116C71.8242 31.6085 72.1468 28.2252 72.5328 24.4635H74.3862C74.173 26.2452 74.3344 28.1361 74.8703 30.1364C75.8228 33.691 77.6428 36.218 80.3305 37.7175L81.064 38.0843L86.3305 40.7175C89.0491 42.2087 92.263 42.4574 95.9721 41.4635C98.0122 40.9169 99.4638 40.2461 100.746 38.9635L100.822 38.8875C100.834 38.8939 100.845 38.9 100.857 38.9058L106.826 41.8899C106.912 41.9368 107.01 41.9635 107.115 41.9635H112.422C112.753 41.9635 113.022 41.6949 113.022 41.3635V29.3824C113.022 27.4771 113.334 26.0558 113.959 25.1188C114.584 24.1504 115.594 23.6663 116.911 23.6663C117.795 23.6663 119.065 24.2879 119.802 24.6961C120.121 24.8725 120.532 24.7478 120.683 24.416L122.355 20.7365C122.477 20.4687 122.387 20.1501 122.135 19.9984L120.728 19.2951L116.135 16.9984C112.936 15.0723 109.912 15.5277 107.348 16.7794L104.663 15.4373L104.597 15.4041C104.459 15.3461 104.297 15.3429 104.147 15.4041L100.074 17.0706C99.7538 17.2014 99.6121 17.5742 99.7464 17.8927C100.007 18.5101 100.185 19.0818 100.28 19.6077C100.372 20.0125 100.437 20.4606 100.475 20.9521C99.7706 20.203 98.981 19.5833 98.1061 19.093L97.2745 18.6772L92.1123 16.0964L91.268 15.6744C90.7157 15.4302 90.1332 15.232 89.5205 15.0796C87.5246 14.5543 85.352 14.6064 83.0029 15.2358C81.6543 15.5971 80.4598 16.0882 79.4192 16.7091L75.8242 14.9116L73.5348 15.0444C73.7094 13.4451 73.8242 12.4116 73.8242 12.4116L67.8242 9.41165L62.3242 8.41165L61.4442 15.7453L58.2126 15.9326C58.5542 12.2467 58.8242 9.41165 58.8242 9.41165L52.8242 6.41165L46.3242 5.41165L45.5202 16.6684L41.3242 16.9116L41.1587 18.2157L38.0944 16.6835L30.7584 15.6835V20.5352C29.9555 19.6719 29.0411 18.9935 28.0152 18.5L21.7752 15.3889C20.4642 14.8046 18.977 14.5125 17.3137 14.5125C17.1066 14.5125 16.9013 14.5183 16.6978 14.53L17.2182 7.06593C17.2323 6.86438 17.1451 6.67917 17 6.56006L10.9119 3.5C10.8371 3.45822 10.7521 3.43189 10.6609 3.42561ZM21.4002 26.6897C21.4002 28.9769 20.9355 30.7487 20.006 32.0051C19.2435 33.0093 18.2007 33.6016 16.8774 33.7821C16.4247 32.7686 16.1983 31.5656 16.1983 30.1729V29.3031C16.1983 27.4346 16.6791 25.8561 17.6406 24.5675C18.409 23.512 19.4435 22.8782 20.7441 22.6662C21.1815 23.7312 21.4002 25.0723 21.4002 26.6897ZM57.4387 24.4635C57.0958 28.3584 56.8242 31.6747 56.8242 32.4116C56.8242 33.1552 56.8242 33.766 56.8505 34.2705C56.9127 35.4622 57.1216 36.0603 57.8242 36.4116C58.5839 36.7915 59.4398 36.7866 60.1726 36.6161C59.9056 36.2491 59.7227 35.8677 59.5973 35.4947C59.3242 34.6825 59.3242 33.9102 59.3242 33.4116L60.398 24.4635H57.4387Z"/>
<path d="M34.9264 4.8835C33.6784 4.8835 32.6384 5.2675 31.8064 6.0355C31.0064 6.8035 30.6064 7.7795 30.6064 8.9635C30.6064 10.1475 31.0064 11.1235 31.8064 11.8915C32.0026 12.0727 32.2105 12.2324 32.4298 12.3709L39.0284 15.6835C39.5961 15.9235 40.2287 16.0435 40.9264 16.0435C42.1744 16.0435 43.1984 15.6595 43.9984 14.8915C44.8304 14.1235 45.2464 13.1475 45.2464 11.9635C45.2464 10.7795 44.8304 9.8035 43.9984 9.0355C43.7496 8.79667 43.4792 8.59498 43.1871 8.43042L42.8359 8.25505L37.2342 5.45739L36.7857 5.23341C36.234 5.00014 35.6142 4.8835 34.9264 4.8835Z"/>
<path d="M71.86 34.4298C71.9328 35.5163 72.1537 36.0764 72.8242 36.4116C73.8242 36.9116 74.9909 36.745 75.8242 36.4116L71.86 34.4298Z"/>
<path d="M56.8505 34.2705C56.9127 35.4622 57.1216 36.0603 57.8242 36.4116C58.5839 36.7915 59.4398 36.7866 60.1726 36.6161C59.9056 36.2491 59.7227 35.8677 59.5973 35.4947L56.8505 34.2705Z"/>
</mask>
<path fill-rule="evenodd" clip-rule="evenodd" d="M46.5 37.8115C46.7452 37.9599 47.0181 38.0984 47.3217 38.2244L46.5 37.8115ZM36.7857 5.23341L37.2342 5.45739C37.09 5.37355 36.9405 5.29888 36.7857 5.23341ZM42.8359 8.25505L43.1871 8.43042C43.0733 8.36633 42.9563 8.30788 42.8359 8.25505ZM104.597 15.4041L104.663 15.4373C104.642 15.4248 104.62 15.4137 104.597 15.4041ZM122.135 19.9984C121.662 19.7136 121.193 19.4809 120.728 19.2951L122.135 19.9984ZM67.6127 40.8779L68.2244 41.1831C68.0042 41.0877 67.8007 40.9856 67.6127 40.8779Z" fill="#FF4A10"/>
<path fill-rule="evenodd" clip-rule="evenodd" d="M91.268 15.6744C91.5577 15.8024 91.8391 15.9431 92.1123 16.0964L91.268 15.6744Z" fill="#FF4A10"/>
<path fill-rule="evenodd" clip-rule="evenodd" d="M10.6609 3.42561L4.58951 3.00764C4.24274 2.98377 3.9483 3.25863 3.9483 3.60622V31.8601C3.9483 32.9877 3.85215 33.938 3.65984 34.7111C3.52032 35.2487 3.32175 35.7863 3.06414 36.3238C2.93074 36.6022 3.01206 36.933 3.24645 37.1085L3.46018 37.2156L9.27762 40.1303C9.31117 40.1522 9.34749 40.1711 9.38641 40.1865L13.5035 41.8108C13.7363 41.9026 14.0038 41.8419 14.1598 41.6461C14.6213 41.0666 14.97 40.4304 15.2058 39.7374C15.3796 39.2267 16.1226 39.0245 16.5092 39.4007C18.2316 41.077 20.3875 41.9152 22.9771 41.9152C24.9643 41.9152 26.7752 41.4158 28.4098 40.4172C29.2972 39.8684 30.08 39.2054 30.7584 38.4283V38.4635L36.7584 41.4635L42.0944 41.9635L43.7976 22.9891L45.0249 23.6027L44.3242 33.4116C44.3242 34.4073 44.3242 36.4956 46.5 37.8115L47.3217 38.2244L52.6922 40.9226C53.0216 41.1043 53.3968 41.2692 53.8242 41.4116C57.4242 42.6116 61.1576 41.5783 62.3242 40.9116L61.2334 37.6392C61.4754 37.8013 61.8083 37.995 62.1134 38.1338L67.6127 40.8779L68.2244 41.1831C68.412 41.2644 68.6116 41.3408 68.8242 41.4116C72.4242 42.6116 76.1576 41.5783 77.3242 40.9116L75.8242 36.4116C74.9909 36.745 73.8242 36.9116 72.8242 36.4116C72.1537 36.0764 71.9328 35.5163 71.86 34.4298C71.8242 33.896 71.8242 33.2352 71.8242 32.4116C71.8242 31.6085 72.1468 28.2252 72.5328 24.4635H74.3862C74.173 26.2452 74.3344 28.1361 74.8703 30.1364C75.8228 33.691 77.6428 36.218 80.3305 37.7175L81.064 38.0843L86.3305 40.7175C89.0491 42.2087 92.263 42.4574 95.9721 41.4635C98.0122 40.9169 99.4638 40.2461 100.746 38.9635L100.822 38.8875C100.834 38.8939 100.845 38.9 100.857 38.9058L106.826 41.8899C106.912 41.9368 107.01 41.9635 107.115 41.9635H112.422C112.753 41.9635 113.022 41.6949 113.022 41.3635V29.3824C113.022 27.4771 113.334 26.0558 113.959 25.1188C114.584 24.1504 115.594 23.6663 116.911 23.6663C117.795 23.6663 119.065 24.2879 119.802 24.6961C120.121 24.8725 120.532 24.7478 120.683 24.416L122.355 20.7365C122.477 20.4687 122.387 20.1501 122.135 19.9984L120.728 19.2951L116.135 16.9984C112.936 15.0723 109.912 15.5277 107.348 16.7794L104.663 15.4373L104.597 15.4041C104.459 15.3461 104.297 15.3429 104.147 15.4041L100.074 17.0706C99.7538 17.2014 99.6121 17.5742 99.7464 17.8927C100.007 18.5101 100.185 19.0818 100.28 19.6077C100.372 20.0125 100.437 20.4606 100.475 20.9521C99.7706 20.203 98.981 19.5833 98.1061 19.093L97.2745 18.6772L92.1123 16.0964L91.268 15.6744C90.7157 15.4302 90.1332 15.232 89.5205 15.0796C87.5246 14.5543 85.352 14.6064 83.0029 15.2358C81.6543 15.5971 80.4598 16.0882 79.4192 16.7091L75.8242 14.9116L73.5348 15.0444C73.7094 13.4451 73.8242 12.4116 73.8242 12.4116L67.8242 9.41165L62.3242 8.41165L61.4442 15.7453L58.2126 15.9326C58.5542 12.2467 58.8242 9.41165 58.8242 9.41165L52.8242 6.41165L46.3242 5.41165L45.5202 16.6684L41.3242 16.9116L41.1587 18.2157L38.0944 16.6835L30.7584 15.6835V20.5352C29.9555 19.6719 29.0411 18.9935 28.0152 18.5L21.7752 15.3889C20.4642 14.8046 18.977 14.5125 17.3137 14.5125C17.1066 14.5125 16.9013 14.5183 16.6978 14.53L17.2182 7.06593C17.2323 6.86438 17.1451 6.67917 17 6.56006L10.9119 3.5C10.8371 3.45822 10.7521 3.43189 10.6609 3.42561ZM21.4002 26.6897C21.4002 28.9769 20.9355 30.7487 20.006 32.0051C19.2435 33.0093 18.2007 33.6016 16.8774 33.7821C16.4247 32.7686 16.1983 31.5656 16.1983 30.1729V29.3031C16.1983 27.4346 16.6791 25.8561 17.6406 24.5675C18.409 23.512 19.4435 22.8782 20.7441 22.6662C21.1815 23.7312 21.4002 25.0723 21.4002 26.6897ZM57.4387 24.4635C57.0958 28.3584 56.8242 31.6747 56.8242 32.4116C56.8242 33.1552 56.8242 33.766 56.8505 34.2705C56.9127 35.4622 57.1216 36.0603 57.8242 36.4116C58.5839 36.7915 59.4398 36.7866 60.1726 36.6161C59.9056 36.2491 59.7227 35.8677 59.5973 35.4947C59.3242 34.6825 59.3242 33.9102 59.3242 33.4116L60.398 24.4635H57.4387Z" fill="#FF4A10"/>
<path d="M34.9264 4.8835C33.6784 4.8835 32.6384 5.2675 31.8064 6.0355C31.0064 6.8035 30.6064 7.7795 30.6064 8.9635C30.6064 10.1475 31.0064 11.1235 31.8064 11.8915C32.0026 12.0727 32.2105 12.2324 32.4298 12.3709L39.0284 15.6835C39.5961 15.9235 40.2287 16.0435 40.9264 16.0435C42.1744 16.0435 43.1984 15.6595 43.9984 14.8915C44.8304 14.1235 45.2464 13.1475 45.2464 11.9635C45.2464 10.7795 44.8304 9.8035 43.9984 9.0355C43.7496 8.79667 43.4792 8.59498 43.1871 8.43042L42.8359 8.25505L37.2342 5.45739L36.7857 5.23341C36.234 5.00014 35.6142 4.8835 34.9264 4.8835Z" fill="#FF4A10"/>
<path d="M71.86 34.4298C71.9328 35.5163 72.1537 36.0764 72.8242 36.4116C73.8242 36.9116 74.9909 36.745 75.8242 36.4116L71.86 34.4298Z" fill="#FF4A10"/>
<path d="M56.8505 34.2705C56.9127 35.4622 57.1216 36.0603 57.8242 36.4116C58.5839 36.7915 59.4398 36.7866 60.1726 36.6161C59.9056 36.2491 59.7227 35.8677 59.5973 35.4947L56.8505 34.2705Z" fill="#FF4A10"/>
<path d="M47.3217 38.2244L46.6483 39.5647C46.6806 39.5809 46.7134 39.596 46.7467 39.6098L47.3217 38.2244ZM104.663 15.4373L105.422 14.1433C105.393 14.1265 105.364 14.1106 105.334 14.0956L104.663 15.4373ZM61.2334 37.6392L62.0863 36.4053C62.0803 36.4011 62.0743 36.397 62.0682 36.3929L61.2334 37.6392ZM60.1726 36.6161L60.5124 38.0772C61.0023 37.9632 61.4025 37.6113 61.5782 37.14C61.7538 36.6687 61.6816 36.1407 61.3857 35.7339L60.1726 36.6161ZM75.2672 35.0189C74.6508 35.2655 73.9666 35.3058 73.4951 35.07L72.1534 37.7533C73.6819 38.5175 75.3311 38.2245 76.3813 37.8044L75.2672 35.0189ZM36.1155 6.57536L36.564 6.79934L37.9044 4.11544L37.4559 3.89146L36.1155 6.57536ZM42.1657 9.597L42.5168 9.77237L43.8573 7.08847L43.5061 6.91311L42.1657 9.597ZM66.943 42.2201L67.5547 42.5253L68.8941 39.8409L68.2824 39.5357L66.943 42.2201ZM48.2986 36.9886C48.1551 36.9408 48.0214 36.8907 47.8968 36.839L46.7467 39.6098C46.9399 39.69 47.1409 39.765 47.3499 39.8347L48.2986 36.9886ZM45.8266 39.1519L46.6483 39.5647L47.9952 36.8841L47.1734 36.4712L45.8266 39.1519ZM120.057 20.6368L121.464 21.34L122.806 18.6567L121.399 17.9535L120.057 20.6368ZM103.905 16.7312C103.745 16.6377 103.609 16.4944 103.524 16.3153L106.236 15.0334C106.054 14.6477 105.765 14.3441 105.422 14.1433L103.905 16.7312ZM103.926 16.7458L103.993 16.7789L105.334 14.0956L105.268 14.0625L103.926 16.7458ZM62.0682 36.3929C62.0663 36.3916 62.0641 36.3902 62.0619 36.3887C62.06 36.3875 62.0566 36.3852 62.0525 36.3825C62.0506 36.3813 62.0469 36.3788 62.0422 36.3757C62.0398 36.3742 62.036 36.3718 62.0313 36.3688C62.029 36.3673 62.0258 36.3653 62.0221 36.363C62.0186 36.3608 62.0134 36.3576 62.007 36.3537C62.0038 36.3518 61.9998 36.3493 61.9952 36.3466C61.9907 36.3439 61.9848 36.3405 61.9779 36.3365C61.9712 36.3326 61.9616 36.3271 61.95 36.3207C61.9451 36.318 61.9344 36.3122 61.9286 36.3092C61.9216 36.3055 61.9062 36.2976 61.8977 36.2933C61.8872 36.2881 61.8632 36.2766 61.8498 36.2704C61.8321 36.2625 61.79 36.2447 61.7655 36.235C61.7301 36.2219 61.639 36.1928 61.583 36.1779C61.4858 36.1576 61.1929 36.1356 60.999 36.1527C60.599 36.2732 59.8982 36.9401 59.7356 37.4787C59.7374 37.8076 59.8685 38.2702 59.9404 38.4056C59.9845 38.4749 60.0631 38.5809 60.0951 38.619C60.1173 38.644 60.1564 38.6854 60.1731 38.7021C60.1857 38.7145 60.2086 38.7361 60.2186 38.7453C60.2268 38.7527 60.2416 38.7658 60.2483 38.7716C60.254 38.7764 60.2644 38.7852 60.2692 38.7892C60.2733 38.7926 60.281 38.7989 60.2846 38.8018C60.2931 38.8088 60.3004 38.8145 60.3058 38.8187C60.3112 38.8229 60.316 38.8266 60.3197 38.8294C60.327 38.8349 60.333 38.8394 60.3369 38.8423C60.341 38.8453 60.3445 38.8479 60.3471 38.8497C60.3522 38.8534 60.3563 38.8563 60.3588 38.8581C60.3614 38.86 60.3637 38.8616 60.3653 38.8627C60.3685 38.865 60.3711 38.8668 60.3727 38.8679C60.3759 38.8701 60.3787 38.872 60.3803 38.8731C60.3837 38.8754 60.3869 38.8776 60.3894 38.8794C60.392 38.8811 60.3952 38.8833 60.3986 38.8856C60.4002 38.8867 60.4029 38.8885 60.4061 38.8906C60.4077 38.8916 60.4102 38.8934 60.4133 38.8954C60.4149 38.8965 60.4171 38.8979 60.4197 38.8996C60.4222 38.9012 60.4261 38.9037 60.4309 38.9068C60.4334 38.9084 60.4367 38.9105 60.4406 38.913C60.4443 38.9153 60.4499 38.9188 60.4566 38.9229C60.4601 38.925 60.4644 38.9276 60.4693 38.9306C60.4742 38.9335 60.4807 38.9373 60.4883 38.9417C60.4956 38.946 60.5064 38.9521 60.5196 38.9593C60.5252 38.9624 60.5375 38.969 60.5443 38.9725C60.5524 38.9768 60.5707 38.986 60.5808 38.991C60.5936 38.9972 60.6231 39.0109 60.64 39.0183C60.6627 39.028 60.7184 39.0499 60.7514 39.0617C60.8017 39.078 60.9386 39.1128 61.0257 39.1279C61.1928 39.1425 61.7133 39.0663 62.0389 38.9123C62.4525 38.5252 62.7392 37.6323 62.6875 37.253C62.631 37.0839 62.5078 36.8428 62.4559 36.7659C62.4229 36.7219 62.3647 36.6517 62.3405 36.6248C62.3231 36.6063 62.292 36.5748 62.2785 36.5616C62.268 36.5516 62.2489 36.534 62.2404 36.5263C62.2335 36.5201 62.2206 36.5088 62.2148 36.5038C62.2098 36.4996 62.2006 36.4918 62.1964 36.4883C62.1927 36.4853 62.1858 36.4796 62.1825 36.477C62.1747 36.4706 62.168 36.4654 62.1631 36.4615C62.158 36.4576 62.1536 36.4542 62.1501 36.4515C62.1433 36.4463 62.1376 36.442 62.1339 36.4392C62.1299 36.4363 62.1266 36.4338 62.1241 36.432C62.1192 36.4284 62.1152 36.4256 62.1128 36.4238C62.1079 36.4203 62.104 36.4176 62.1021 36.4162C62.098 36.4133 62.0945 36.4109 62.0926 36.4096C62.0904 36.4081 62.0883 36.4066 62.0863 36.4053L60.3805 38.8731C60.3811 38.8735 60.381 38.8734 60.3804 38.873C60.3802 38.8729 60.3779 38.8713 60.3747 38.869C60.3732 38.8679 60.3696 38.8654 60.365 38.8621C60.3627 38.8605 60.3588 38.8577 60.354 38.8542C60.3516 38.8524 60.3482 38.85 60.3443 38.847C60.3406 38.8443 60.335 38.8401 60.3282 38.8349C60.3247 38.8322 60.3203 38.8288 60.3152 38.8249C60.3103 38.821 60.3036 38.8157 60.2958 38.8094C60.2926 38.8068 60.2857 38.8011 60.282 38.7981C60.2777 38.7946 60.2685 38.7868 60.2636 38.7826C60.2578 38.7776 60.2449 38.7663 60.238 38.7602C60.2294 38.7524 60.2104 38.7348 60.1999 38.7248C60.1864 38.7117 60.1553 38.6801 60.1379 38.6616C60.1137 38.6348 60.0555 38.5645 60.0225 38.5205C59.9706 38.4436 59.8474 38.2025 59.7909 38.0335C59.7392 37.6541 60.0259 36.7612 60.4395 36.3742C60.7651 36.2201 61.2856 36.1439 61.4527 36.1585C61.5398 36.1736 61.6767 36.2084 61.727 36.2247C61.76 36.2365 61.8157 36.2584 61.8384 36.2681C61.8553 36.2756 61.8848 36.2893 61.8976 36.2954C61.9077 36.3004 61.926 36.3097 61.9341 36.3139C61.9408 36.3174 61.9532 36.324 61.9588 36.3271C61.972 36.3343 61.9827 36.3404 61.99 36.3447C61.9977 36.3491 62.0041 36.3529 62.009 36.3558C62.0139 36.3588 62.0182 36.3614 62.0217 36.3635C62.0284 36.3676 62.0339 36.371 62.0376 36.3733C62.0414 36.3758 62.0447 36.3778 62.0471 36.3794C62.0519 36.3825 62.0557 36.3849 62.058 36.3865C62.0605 36.3881 62.0626 36.3894 62.0641 36.3904C62.0669 36.3923 62.0691 36.3938 62.0704 36.3946C62.0728 36.3962 62.0746 36.3974 62.0751 36.3978C62.0759 36.3983 62.0764 36.3986 62.0766 36.3988C62.0768 36.3989 62.077 36.399 62.0771 36.3991C62.0772 36.3992 62.0773 36.3993 62.0776 36.3994C62.0778 36.3996 62.0783 36.3999 62.0791 36.4005C62.0797 36.4008 62.0815 36.4021 62.084 36.4038C62.0852 36.4047 62.0875 36.4063 62.0904 36.4083C62.0919 36.4094 62.094 36.4109 62.0966 36.4127C62.099 36.4144 62.103 36.4173 62.108 36.4209C62.1105 36.4227 62.114 36.4253 62.1181 36.4283C62.122 36.4311 62.128 36.4356 62.1352 36.4411C62.1389 36.4439 62.1437 36.4475 62.1491 36.4518C62.1544 36.4559 62.1617 36.4617 62.1703 36.4686C62.1739 36.4715 62.1816 36.4778 62.1857 36.4812C62.1905 36.4852 62.2009 36.494 62.2065 36.4988C62.2132 36.5046 62.2281 36.5178 62.2362 36.5251C62.2463 36.5343 62.2691 36.5559 62.2818 36.5683C62.2985 36.585 62.3376 36.6265 62.3597 36.6514C62.3917 36.6895 62.4703 36.7955 62.5144 36.8648C62.5864 37.0002 62.7175 37.4628 62.7192 37.7917C62.5566 38.3303 61.8558 38.9972 61.4558 39.1177C61.2619 39.1348 60.9691 39.1128 60.8719 39.0924C60.8158 39.0776 60.7247 39.0485 60.6893 39.0354C60.6649 39.0257 60.6228 39.0079 60.6051 39C60.5916 38.9938 60.5677 38.9823 60.5571 38.9771C60.5487 38.9728 60.5333 38.9649 60.5263 38.9613C60.5205 38.9582 60.5098 38.9524 60.5048 38.9497C60.4932 38.9433 60.4837 38.9378 60.477 38.934C60.4701 38.93 60.4642 38.9265 60.4597 38.9238C60.4551 38.9211 60.4511 38.9187 60.4479 38.9168C60.4416 38.9129 60.4365 38.9097 60.433 38.9075C60.4293 38.9052 60.4262 38.9033 60.4239 38.9018C60.4193 38.8989 60.4156 38.8965 60.4134 38.8951C60.409 38.8922 60.4056 38.89 60.4041 38.889C60.4009 38.887 60.3988 38.8855 60.3986 38.8854C60.398 38.885 60.398 38.885 60.3986 38.8854L62.0682 36.3929ZM59.8328 35.1551C59.3171 35.2751 58.8449 35.2449 58.4951 35.07L57.1534 37.7533C58.3229 38.338 59.5624 38.2981 60.5124 38.0772L59.8328 35.1551ZM92.783 14.7548L91.9387 14.3327L90.5972 17.016L91.4415 17.4381L92.783 14.7548ZM101.807 40.0241C101.834 39.9969 101.861 39.9697 101.888 39.9424L99.7556 37.8325C99.7325 37.8559 99.7092 37.8794 99.6856 37.9029L101.807 40.0241ZM101.63 19.9917C101.61 19.9692 101.589 19.9468 101.568 19.9245L99.3822 21.9796C99.398 21.9964 99.4137 22.0133 99.4294 22.0302L101.63 19.9917ZM96.6671 20.0487C96.9099 20.1563 97.1451 20.2739 97.3728 20.4015L98.8395 17.7845C98.5289 17.6104 98.2096 17.4509 97.8819 17.3057L96.6671 20.0487ZM81.683 36.7179C81.4696 36.6213 81.2593 36.5161 81.0519 36.4024L79.6091 39.0327C79.883 39.1829 80.1617 39.3222 80.4451 39.4506L81.683 36.7179ZM70.3633 34.5301C70.4031 35.124 70.4903 35.7612 70.7585 36.3363C71.0599 36.9828 71.5376 37.4454 72.1534 37.7533L73.4951 35.07C73.4496 35.0473 73.4486 35.0396 73.4638 35.0549C73.4807 35.0718 73.4844 35.0835 73.4774 35.0686C73.4675 35.0472 73.4436 34.9871 73.4188 34.8611C73.3939 34.7341 73.3723 34.5634 73.3566 34.3295L70.3633 34.5301ZM55.3526 34.3486C55.3855 34.9806 55.4614 35.6517 55.7201 36.2508C56.0152 36.9343 56.5026 37.4279 57.1534 37.7533L58.4951 35.07C58.4478 35.0464 58.4487 35.0391 58.4655 35.0566C58.4837 35.0755 58.4849 35.086 58.4744 35.0617C58.4606 35.0299 58.4342 34.9543 58.4085 34.8048C58.3828 34.6548 58.3623 34.4577 58.3485 34.1924L55.3526 34.3486ZM61.3857 35.7339C61.2191 35.5048 61.102 35.2634 61.0191 35.0167L58.1755 35.9727C58.3433 36.472 58.5922 36.9933 58.9595 37.4984L61.3857 35.7339ZM3.06414 36.3238L0.358761 35.0273L0.358756 35.0273L3.06414 36.3238ZM10.6609 3.42561L10.4549 6.41853L10.4549 6.41853L10.6609 3.42561ZM4.58951 3.00764L4.79555 0.0147244L4.79555 0.0147244L4.58951 3.00764ZM3.65984 34.7111L6.56363 35.4648C6.56618 35.455 6.56868 35.4451 6.57113 35.4353L3.65984 34.7111ZM20.006 32.0051L22.3953 33.8193C22.4028 33.8093 22.4103 33.7994 22.4177 33.7893L20.006 32.0051ZM31.8064 11.8915L29.7288 14.0557C29.7429 14.0692 29.7572 14.0826 29.7715 14.0959L31.8064 11.8915ZM31.8064 6.0355L29.7715 3.83109C29.7572 3.84436 29.7429 3.85778 29.7288 3.87133L31.8064 6.0355ZM30.7584 15.6835L31.1636 12.711C30.3052 12.594 29.4381 12.8537 28.7855 13.4235C28.1329 13.9932 27.7584 14.8172 27.7584 15.6835H30.7584ZM38.0944 16.6835L39.436 14.0002C39.1418 13.8531 38.8255 13.7554 38.4996 13.711L38.0944 16.6835ZM30.7584 38.4635H27.7584C27.7584 39.5998 28.4004 40.6386 29.4167 41.1468L30.7584 38.4635ZM52.8242 6.41165L54.1659 3.72837C53.8872 3.589 53.5884 3.49392 53.2804 3.44653L52.8242 6.41165ZM46.3242 5.41165L46.7804 2.44653C45.9521 2.31911 45.1083 2.54393 44.4532 3.06657C43.7982 3.58921 43.3916 4.36202 43.3319 5.19791L46.3242 5.41165ZM61.4442 15.7453L61.6178 18.7402C63.0681 18.6562 64.2497 17.5451 64.4228 16.1027L61.4442 15.7453ZM62.3242 8.41165L62.8609 5.46004C62.0471 5.31208 61.2084 5.50666 60.5429 5.99778C59.8774 6.48891 59.4442 7.233 59.3456 8.05421L62.3242 8.41165ZM67.8242 9.41165L69.1659 6.72837C68.9116 6.60124 68.6406 6.51089 68.3609 6.46004L67.8242 9.41165ZM75.8242 14.9116L77.1659 12.2284C76.6967 11.9938 76.1743 11.8863 75.6506 11.9167L75.8242 14.9116ZM59.3242 33.4116L56.3456 33.0542C56.3314 33.1728 56.3242 33.2922 56.3242 33.4116H59.3242ZM44.3242 33.4116L41.3319 33.1979C41.3268 33.269 41.3242 33.3403 41.3242 33.4116H44.3242ZM41.3242 16.9116L41.1506 13.9167C39.7081 14.0003 38.5301 15.1004 38.3481 16.5338L41.3242 16.9116ZM45.5202 16.6684L45.6938 19.6634C47.1987 19.5761 48.4052 18.3857 48.5126 16.8821L45.5202 16.6684ZM100.28 19.6077L97.3286 20.1444C97.3364 20.1873 97.3452 20.2301 97.3549 20.2726L100.28 19.6077ZM99.7464 17.8927L102.511 16.7273L102.511 16.7273L99.7464 17.8927ZM100.074 17.0706L101.21 19.8472L101.21 19.8472L100.074 17.0706ZM104.147 15.4041L105.283 18.1808L105.283 18.1807L104.147 15.4041ZM116.135 16.9984L114.587 19.5685C114.654 19.6089 114.723 19.6466 114.793 19.6816L116.135 16.9984ZM80.3305 37.7175L78.8689 40.3374C78.9084 40.3594 78.9484 40.3806 78.9889 40.4008L80.3305 37.7175ZM74.8703 30.1364L77.7681 29.3599L74.8703 30.1364ZM83.0029 15.2358L82.2264 12.338L82.2264 12.338L83.0029 15.2358ZM89.5205 15.0796L88.757 17.9808C88.7701 17.9842 88.7832 17.9876 88.7964 17.9909L89.5205 15.0796ZM9.38641 40.1865L10.4874 37.3958L10.4874 37.3958L9.38641 40.1865ZM13.5035 41.8108L12.4025 44.6014L12.4025 44.6014L13.5035 41.8108ZM14.1598 41.6461L11.8131 39.7772L11.8131 39.7772L14.1598 41.6461ZM15.2058 39.7374L18.0458 40.7039L18.0458 40.7039L15.2058 39.7374ZM16.5092 39.4007L14.4168 41.5506L14.4168 41.5506L16.5092 39.4007ZM28.4098 40.4172L29.9739 42.9772C29.9786 42.9744 29.9833 42.9715 29.9879 42.9686L28.4098 40.4172ZM17.2182 7.06593L14.2255 6.85726L14.2255 6.85726L17.2182 7.06593ZM17.6406 24.5675L20.045 26.3617C20.052 26.3522 20.059 26.3427 20.066 26.3332L17.6406 24.5675ZM43.9984 14.8915L41.9635 12.6871C41.9492 12.7004 41.9349 12.7138 41.9208 12.7273L43.9984 14.8915ZM43.9984 9.0355L41.9208 11.1997C41.9349 11.2132 41.9492 11.2266 41.9635 11.2399L43.9984 9.0355ZM36.7584 41.4635L35.4167 44.1468C35.7488 44.3128 36.1088 44.4158 36.4785 44.4504L36.7584 41.4635ZM42.0944 41.9635L41.8145 44.9504C42.6087 45.0248 43.3998 44.7799 44.013 44.2697C44.6263 43.7596 45.011 43.0262 45.0824 42.2317L42.0944 41.9635ZM58.8242 9.41165L61.8107 9.69607C61.9283 8.46201 61.2747 7.28275 60.1659 6.72837L58.8242 9.41165ZM73.8242 12.4116L76.8059 12.7429C76.9447 11.4937 76.2901 10.2905 75.1659 9.72837L73.8242 12.4116ZM72.5328 24.4635V21.4635C70.9945 21.4635 69.7055 22.627 69.5484 24.1573L72.5328 24.4635ZM75.8242 36.4116L78.6703 35.463C78.4187 34.7081 77.8775 34.0841 77.1657 33.7283L75.8242 36.4116ZM77.3242 40.9116L78.8127 43.5164C80.0543 42.8069 80.6225 41.3196 80.1703 39.963L77.3242 40.9116ZM68.8242 41.4116L69.7729 38.5656L69.7729 38.5656L68.8242 41.4116ZM57.4387 24.4635V21.4635C55.8838 21.4635 54.5867 22.6515 54.4503 24.2004L57.4387 24.4635ZM62.3242 40.9116L63.8127 43.5164C65.0543 42.8069 65.6225 41.3196 65.1703 39.963L62.3242 40.9116ZM53.8242 41.4116L54.7729 38.5656L54.7729 38.5656L53.8242 41.4116ZM122.135 19.9984L120.587 22.5685L120.587 22.5685L122.135 19.9984ZM122.355 20.7365L125.086 21.9779L125.086 21.9779L122.355 20.7365ZM120.683 24.416L117.951 23.1746L117.951 23.1746L120.683 24.416ZM119.802 24.6961L121.255 22.0709L121.255 22.0709L119.802 24.6961ZM113.959 25.1188L116.455 26.7828C116.464 26.7703 116.472 26.7578 116.48 26.7451L113.959 25.1188ZM95.9721 41.4635L95.1957 38.5657L95.9721 41.4635ZM86.3305 40.7175L87.7733 38.0872C87.7399 38.0689 87.7062 38.0512 87.6722 38.0342L86.3305 40.7175ZM100.746 38.9635L102.868 41.0848L102.873 41.0791L100.746 38.9635ZM17 6.56006L18.9034 4.24122C18.732 4.1005 18.5455 3.97922 18.3473 3.87961L17 6.56006ZM3.24645 37.1085L1.44868 39.5102C1.59135 39.617 1.74325 39.7108 1.90259 39.7907L3.24645 37.1085ZM9.27762 40.1303L10.9183 37.6187C10.8227 37.5563 10.7236 37.4993 10.6215 37.4481L9.27762 40.1303ZM36.7857 5.23341L35.6174 7.99658L36.7857 5.23341ZM43.1871 8.43042L41.7146 11.0442L43.1871 8.43042ZM46.5 37.8115L48.0526 35.2445L46.5 37.8115ZM52.6922 40.9226L54.1415 38.2959C54.1077 38.2772 54.0735 38.2592 54.039 38.2419L52.6922 40.9226ZM21.7752 15.3889L23.1138 12.7041C23.0751 12.6847 23.0359 12.6663 22.9964 12.6486L21.7752 15.3889ZM28.0152 18.5L26.6766 21.1848C26.6893 21.1911 26.702 21.1974 26.7148 21.2035L28.0152 18.5ZM91.268 15.6744L90.0551 18.4182L90.0551 18.4182L91.268 15.6744ZM98.1061 19.093L99.5728 16.476C99.5316 16.4529 99.4899 16.4308 99.4476 16.4097L98.1061 19.093ZM104.597 15.4041L103.436 18.1703L103.436 18.1703L104.597 15.4041ZM100.857 38.9058L102.199 36.2224C102.181 36.2134 102.163 36.2046 102.145 36.196L100.857 38.9058ZM106.826 41.8899L108.27 39.2598C108.236 39.2414 108.202 39.2236 108.168 39.2065L106.826 41.8899ZM62.1134 38.1338L63.4528 35.4494C63.4209 35.4335 63.3887 35.4182 63.3562 35.4034L62.1134 38.1338ZM68.2244 41.1831L69.4171 38.4304L69.4171 38.4304L68.2244 41.1831ZM3.46018 37.2156L2.11631 39.8978L2.11633 39.8978L3.46018 37.2156ZM41.1587 18.2157L39.8171 20.8989C40.687 21.3339 41.7138 21.3201 42.5717 20.862C43.4297 20.4039 44.0123 19.5583 44.1348 18.5935L41.1587 18.2157ZM39.0284 15.6835L37.6824 18.3646C37.7408 18.3939 37.8 18.4213 37.8602 18.4467L39.0284 15.6835ZM42.8359 8.25505L41.4955 10.939C41.5398 10.9611 41.5847 10.9821 41.63 11.002L42.8359 8.25505ZM37.2342 5.45739L35.7256 8.05052C35.7807 8.08256 35.8368 8.11283 35.8938 8.14129L37.2342 5.45739ZM67.6127 40.8779L69.104 38.2748C69.0542 38.2463 69.0035 38.2192 68.9522 38.1935L67.6127 40.8779ZM47.3217 38.2244L48.6686 35.5437C48.6041 35.5113 48.5384 35.4813 48.4718 35.4536L47.3217 38.2244ZM120.728 19.2951L119.387 21.9784C119.461 22.0156 119.537 22.0496 119.614 22.0805L120.728 19.2951ZM107.348 16.7794L106.006 19.4627C106.842 19.8805 107.824 19.8852 108.664 19.4755L107.348 16.7794ZM104.663 15.4373L103.146 18.0252C103.204 18.0589 103.262 18.0907 103.322 18.1206L104.663 15.4373ZM79.4192 16.7091L78.0775 19.3924C78.9926 19.8499 80.0777 19.8096 80.9563 19.2854L79.4192 16.7091ZM74.3862 24.4635L77.3649 24.8199C77.4668 23.9683 77.1993 23.1137 76.63 22.4722C76.0606 21.8306 75.2439 21.4635 74.3862 21.4635V24.4635ZM60.398 24.4635L63.3766 24.8209C63.4789 23.9691 63.2115 23.1143 62.6422 22.4726C62.0728 21.8308 61.2559 21.4635 60.398 21.4635V24.4635ZM61.2334 37.6392L62.903 35.1467C61.8371 34.4328 60.4353 34.4755 59.415 35.2531C58.3947 36.0306 57.9817 37.3709 58.3874 38.5879L61.2334 37.6392ZM30.7584 38.4283H33.7584C33.7584 37.1778 32.9827 36.0585 31.8119 35.6194C30.6411 35.1802 29.3207 35.5134 28.4984 36.4554L30.7584 38.4283ZM58.2126 15.9326L55.2254 15.6558C55.1448 16.5261 55.4477 17.3884 56.055 18.017C56.6624 18.6457 57.5136 18.9782 58.3863 18.9276L58.2126 15.9326ZM73.5348 15.0444L70.5525 14.7187C70.4567 15.5961 70.7521 16.4713 71.3602 17.1111C71.9683 17.7509 72.8272 18.0904 73.7084 18.0393L73.5348 15.0444ZM30.7584 20.5352L28.5615 22.5782C29.4014 23.4813 30.7083 23.7784 31.856 23.3272C33.0037 22.876 33.7584 21.7684 33.7584 20.5352H30.7584ZM16.6978 14.53L13.7051 14.3213C13.6451 15.1809 13.9578 16.0249 14.5633 16.638C15.1688 17.2511 16.0088 17.5743 16.8691 17.5251L16.6978 14.53ZM16.8774 33.7821L14.1384 35.0058C14.6819 36.2223 15.9626 36.9346 17.2828 36.7545L16.8774 33.7821ZM20.7441 22.6662L23.5192 21.5265C22.989 20.2356 21.6388 19.4808 20.2615 19.7053L20.7441 22.6662ZM45.0249 23.6027L48.0172 23.8165C48.1037 22.6058 47.4521 21.4623 46.3665 20.9195L45.0249 23.6027ZM43.7976 22.9891L45.1393 20.3058C44.2519 19.8622 43.2026 19.8859 42.3362 20.3692C41.4698 20.8524 40.8984 21.7328 40.8097 22.7209L43.7976 22.9891ZM92.1123 16.0964L90.6437 18.7124C90.6855 18.7359 90.7279 18.7584 90.7707 18.7798L92.1123 16.0964ZM100.822 38.8875L102.287 36.2694C101.112 35.6123 99.644 35.8177 98.695 36.7719L100.822 38.8875ZM100.475 20.9521L98.2894 23.0072C99.161 23.9341 100.523 24.2104 101.687 23.6965C102.85 23.1827 103.564 21.9905 103.466 20.7219L100.475 20.9521ZM97.2745 18.6772L95.9329 21.3606L95.9329 21.3606L97.2745 18.6772ZM10.9119 3.5L9.44939 6.11936C9.48735 6.14056 9.52577 6.16093 9.56462 6.18046L10.9119 3.5ZM32.4298 12.3709L30.829 14.9081C30.9116 14.9602 30.9966 15.0082 31.0839 15.052L32.4298 12.3709ZM71.86 34.4298L68.8667 34.6303C68.9378 35.6924 69.5664 36.6372 70.5185 37.1132L71.86 34.4298ZM56.8505 34.2705L53.8546 34.4267C53.9134 35.5532 54.599 36.5515 55.6293 37.0106L56.8505 34.2705ZM59.5973 35.4947L58.376 38.2349C59.4635 38.7196 60.7347 38.5153 61.6155 37.7143C62.4964 36.9134 62.8203 35.6673 62.4409 34.5387L59.5973 35.4947ZM4.38347 6.00056L10.4549 6.41853L10.8669 0.432694L4.79555 0.0147244L4.38347 6.00056ZM6.9483 3.60622C6.9483 4.9966 5.77055 6.09605 4.38347 6.00056L4.79555 0.0147244C2.71492 -0.128511 0.9483 1.52066 0.9483 3.60622H6.9483ZM6.9483 31.8601V3.60622H0.9483V31.8601H6.9483ZM6.57113 35.4353C6.84108 34.35 6.9483 33.1396 6.9483 31.8601H0.9483C0.9483 32.8357 0.863214 33.526 0.748544 33.987L6.57113 35.4353ZM5.76952 37.6203C6.10454 36.9212 6.3722 36.2023 6.56363 35.4648L0.756049 33.9575C0.668435 34.295 0.538969 34.6513 0.358761 35.0273L5.76952 37.6203ZM22.4177 33.7893C23.8698 31.8266 24.4002 29.334 24.4002 26.6897H18.4002C18.4002 28.6198 18.0012 29.6708 17.5943 30.2209L22.4177 33.7893ZM33.8412 8.23991C34.0605 8.03747 34.3489 7.8835 34.9264 7.8835V1.8835C33.0078 1.8835 31.2162 2.49753 29.7715 3.83109L33.8412 8.23991ZM33.6064 8.9635C33.6064 8.53475 33.7163 8.36064 33.884 8.19966L29.7288 3.87133C28.2965 5.24636 27.6064 7.02424 27.6064 8.9635H33.6064ZM33.884 9.72733C33.7163 9.56636 33.6064 9.39224 33.6064 8.9635H27.6064C27.6064 10.9028 28.2965 12.6806 29.7288 14.0557L33.884 9.72733ZM30.3532 18.656L37.6892 19.656L38.4996 13.711L31.1636 12.711L30.3532 18.656ZM53.2804 3.44653L46.7804 2.44653L45.8681 8.37676L52.3681 9.37676L53.2804 3.44653ZM59.3456 8.05421L58.4656 15.3878L64.4228 16.1027L65.3029 8.76909L59.3456 8.05421ZM68.3609 6.46004L62.8609 5.46004L61.7876 11.3633L67.2876 12.3633L68.3609 6.46004ZM45.3466 13.6734L41.1506 13.9167L41.4979 19.9066L45.6938 19.6634L45.3466 13.6734ZM43.3319 5.19791L42.5278 16.4547L48.5126 16.8821L49.3166 5.62539L43.3319 5.19791ZM96.982 19.0581C97.1775 19.5219 97.2807 19.8805 97.3286 20.1444L103.232 19.0711C103.089 18.2831 102.836 17.4984 102.511 16.7273L96.982 19.0581ZM98.9378 14.2939C96.9802 15.0948 96.2388 17.2953 96.982 19.0581L102.511 16.7273C102.985 17.8532 102.527 19.3081 101.21 19.8472L98.9378 14.2939ZM103.011 12.6275L98.9378 14.2939L101.21 19.8472L105.283 18.1808L103.011 12.6275ZM81.7921 35.0977C79.9491 34.0694 78.5549 32.2963 77.7681 29.3599L71.9725 30.9128C73.0907 35.0857 75.3365 38.3666 78.8689 40.3374L81.7921 35.0977ZM83.7793 18.1336C85.7146 17.615 87.3493 17.6103 88.757 17.9808L90.2841 12.1784C87.6998 11.4982 84.9894 11.5977 82.2264 12.338L83.7793 18.1336ZM14.6045 39.0201L10.4874 37.3958L8.28542 42.9771L12.4025 44.6014L14.6045 39.0201ZM11.8131 39.7772C12.5458 38.8571 13.7135 38.6686 14.6045 39.0201L12.4025 44.6014C13.7591 45.1367 15.4619 44.8267 16.5065 43.515L11.8131 39.7772ZM12.3657 38.771C12.2425 39.1329 12.0621 39.4645 11.8131 39.7772L16.5065 43.5151C17.1805 42.6687 17.6974 41.7279 18.0458 40.7039L12.3657 38.771ZM18.6016 37.2509C17.4815 36.1608 16.031 36.0675 15.0137 36.3354C14.0002 36.6023 12.8422 37.3708 12.3657 38.771L18.0458 40.7039C17.7431 41.5934 17.0435 42.0054 16.5417 42.1376C16.0359 42.2708 15.1503 42.2645 14.4168 41.5506L18.6016 37.2509ZM22.9771 38.9152C21.1025 38.9152 19.7178 38.3373 18.6016 37.2509L14.4168 41.5506C16.7453 43.8168 19.6726 44.9152 22.9771 44.9152V38.9152ZM26.8458 37.8572C25.7003 38.557 24.4341 38.9152 22.9771 38.9152V44.9152C25.4946 44.9152 27.8502 44.2747 29.9739 42.9772L26.8458 37.8572ZM13.1983 29.3031V30.1729H19.1983V29.3031H13.1983ZM15.2362 22.7734C13.8276 24.6611 13.1983 26.8968 13.1983 29.3031H19.1983C19.1983 27.9724 19.5305 27.0511 20.045 26.3617L15.2362 22.7734ZM41.9208 12.7273C41.7511 12.8902 41.5052 13.0435 40.9264 13.0435V19.0435C42.8435 19.0435 44.6457 18.4287 46.076 17.0557L41.9208 12.7273ZM42.2464 11.9635C42.2464 12.3534 42.1493 12.5156 41.9635 12.6871L46.0332 17.0959C47.5115 15.7314 48.2464 13.9416 48.2464 11.9635H42.2464ZM41.9635 11.2399C42.1493 11.4114 42.2464 11.5736 42.2464 11.9635H48.2464C48.2464 9.98538 47.5115 8.19564 46.0332 6.83109L41.9635 11.2399ZM42.3743 38.9766L37.0383 38.4766L36.4785 44.4504L41.8145 44.9504L42.3743 38.9766ZM74.8242 32.4116C74.8242 31.808 75.1191 28.6486 75.5171 24.7697L69.5484 24.1573C69.1744 27.8019 68.8242 31.409 68.8242 32.4116H74.8242ZM80.1703 39.963L78.6703 35.463L72.9782 37.3603L74.4782 41.8603L80.1703 39.963ZM67.8756 44.2577C70.2043 45.034 72.5085 45.0704 74.3598 44.8384C76.1549 44.6134 77.7899 44.1008 78.8127 43.5164L75.8358 38.3069C75.8382 38.3055 75.8233 38.3141 75.7877 38.331C75.753 38.3476 75.7047 38.3691 75.6423 38.3945C75.5164 38.4456 75.3495 38.5056 75.1445 38.5674C74.7329 38.6914 74.209 38.8103 73.6136 38.8849C72.4067 39.0362 71.0442 38.9893 69.7729 38.5656L67.8756 44.2577ZM59.8242 32.4116C59.8242 32.4113 59.8242 32.412 59.8242 32.4116C59.8242 32.4111 59.8242 32.4117 59.8242 32.4113C59.8242 32.411 59.8242 32.4107 59.8242 32.4102C59.8242 32.4093 59.8243 32.408 59.8243 32.4062C59.8243 32.4026 59.8244 32.3977 59.8245 32.3912C59.8247 32.3781 59.8252 32.3606 59.8259 32.3383C59.8273 32.2931 59.8296 32.2348 59.8331 32.162C59.8401 32.0158 59.851 31.8287 59.8657 31.6006C59.8953 31.1449 59.9387 30.5549 59.9936 29.8571C60.1033 28.4628 60.256 26.6708 60.4271 24.7266L54.4503 24.2004C54.1165 27.9906 53.8242 31.5029 53.8242 32.4116H59.8242ZM52.8756 44.2577C55.2043 45.034 57.5085 45.0704 59.3598 44.8384C61.1548 44.6134 62.7899 44.1008 63.8127 43.5164L60.8358 38.3069C60.8382 38.3055 60.8233 38.3141 60.7877 38.331C60.753 38.3476 60.7047 38.3691 60.6423 38.3945C60.5164 38.4456 60.3495 38.5056 60.1445 38.5674C59.7329 38.6914 59.209 38.8103 58.6136 38.8849C57.4066 39.0362 56.0442 38.9893 54.7729 38.5656L52.8756 44.2577ZM125.086 21.9779C125.804 20.3994 125.31 18.408 123.682 17.4282L120.587 22.5685C119.464 21.8921 119.15 20.538 119.624 19.4951L125.086 21.9779ZM123.414 25.6574L125.086 21.9779L119.624 19.4951L117.951 23.1746L123.414 25.6574ZM118.35 27.3213C120.12 28.2999 122.501 27.665 123.414 25.6574L117.951 23.1746C118.562 21.8307 120.123 21.4451 121.255 22.0709L118.35 27.3213ZM116.911 26.6663C116.802 26.6663 116.787 26.6504 116.895 26.6777C116.991 26.7021 117.128 26.7464 117.305 26.8165C117.662 26.9584 118.042 27.1505 118.35 27.3213L121.255 22.0709C120.825 21.8335 120.201 21.5107 119.518 21.2397C118.906 20.9967 117.937 20.6663 116.911 20.6663V26.6663ZM116.48 26.7451C116.497 26.7189 116.504 26.7146 116.498 26.72C116.492 26.7256 116.487 26.7273 116.493 26.7246C116.503 26.7198 116.617 26.6663 116.911 26.6663V20.6663C114.784 20.6663 112.72 21.5053 111.438 23.4924L116.48 26.7451ZM116.022 29.3824C116.022 27.7035 116.316 26.992 116.455 26.7828L111.463 23.4547C110.353 25.1197 110.022 27.2506 110.022 29.3824H116.022ZM116.022 41.3635V29.3824H110.022V41.3635H116.022ZM112.422 44.9635C114.41 44.9635 116.022 43.3517 116.022 41.3635H110.022C110.022 40.038 111.096 38.9635 112.422 38.9635V44.9635ZM107.115 44.9635H112.422V38.9635H107.115V44.9635ZM95.1957 38.5657C92.0458 39.4097 89.6613 39.1229 87.7733 38.0872L84.8878 43.3478C88.4368 45.2945 92.4802 45.505 96.7486 44.3613L95.1957 38.5657ZM98.6251 36.8422C97.8535 37.6137 96.9577 38.0936 95.1957 38.5657L96.7486 44.3613C99.0666 43.7402 101.074 42.8785 102.868 41.0848L98.6251 36.8422ZM15.0966 8.8789C14.523 8.40811 14.1691 7.66585 14.2255 6.85726L20.211 7.27459C20.2954 6.06291 19.7672 4.95023 18.9034 4.24122L15.0966 8.8789ZM5.04423 34.7068C5.99168 35.4161 6.23563 36.6477 5.76953 37.6203L0.358756 35.0273C-0.374136 36.5566 0.0324344 38.45 1.44868 39.5102L5.04423 34.7068ZM10.4874 37.3958C10.6381 37.4552 10.7825 37.53 10.9183 37.6187L7.63692 42.6419C7.83984 42.7745 8.05691 42.887 8.28543 42.9771L10.4874 37.3958ZM29.4167 41.1468L35.4167 44.1468L38.1 38.7802L32.1 35.7802L29.4167 41.1468ZM34.9264 7.8835C35.2719 7.8835 35.4861 7.94106 35.6174 7.99658L37.954 2.47024C36.9818 2.05921 35.9565 1.8835 34.9264 1.8835V7.8835ZM41.7146 11.0442C41.7806 11.0814 41.8488 11.1305 41.9208 11.1997L46.076 6.87134C45.6504 6.46282 45.1777 6.10855 44.6595 5.81665L41.7146 11.0442ZM51.4826 9.09493L57.4826 12.0949L60.1659 6.72837L54.1659 3.72837L51.4826 9.09493ZM66.4826 12.0949L72.4826 15.0949L75.1659 9.72837L69.1659 6.72837L66.4826 12.0949ZM41.3242 33.4116C41.3242 34.4444 41.2569 38.1465 44.9474 40.3786L48.0526 35.2445C47.6362 34.9927 47.5113 34.7488 47.4405 34.5377C47.34 34.2378 47.3242 33.9104 47.3242 33.4116H41.3242ZM51.2429 43.5493C51.7447 43.8261 52.2891 44.0622 52.8756 44.2577L54.7729 38.5656C54.5046 38.4761 54.2985 38.3825 54.1415 38.2959L51.2429 43.5493ZM17.3137 17.5125C18.6226 17.5125 19.6837 17.7412 20.5541 18.1291L22.9964 12.6486C21.2447 11.868 19.3314 11.5125 17.3137 11.5125V17.5125ZM88.7964 17.9909C89.2493 18.1035 89.6676 18.247 90.0551 18.4182L92.4808 12.9305C91.7638 12.6135 91.0172 12.3604 90.2447 12.1683L88.7964 17.9909ZM105.758 12.6379C104.889 12.2731 103.901 12.2637 103.011 12.6275L105.283 18.1807C104.693 18.4221 104.029 18.4192 103.436 18.1703L105.758 12.6379ZM105.383 44.5199C105.9 44.8034 106.493 44.9635 107.115 44.9635V38.9635C107.527 38.9635 107.924 39.0702 108.27 39.2598L105.383 44.5199ZM99.5159 41.5891L105.485 44.5732L108.168 39.2065L102.199 36.2224L99.5159 41.5891ZM67.0317 43.9359C67.3027 44.0532 67.5839 44.1605 67.8756 44.2577L69.7729 38.5656C69.6394 38.5211 69.5213 38.4755 69.4171 38.4304L67.0317 43.9359ZM2.11633 39.8978L7.93377 42.8125L10.6215 37.4481L4.80404 34.5334L2.11633 39.8978ZM1.90259 39.7907L2.11631 39.8978L4.80405 34.5334L4.59032 34.4263L1.90259 39.7907ZM42.5003 15.5324L39.436 14.0002L36.7527 19.3668L39.8171 20.8989L42.5003 15.5324ZM38.3481 16.5338L38.1826 17.8378L44.1348 18.5935L44.3004 17.2895L38.3481 16.5338ZM40.9264 13.0435C40.5772 13.0435 40.3489 12.9847 40.1967 12.9203L37.8602 18.4467C38.8432 18.8623 39.8802 19.0435 40.9264 19.0435V13.0435ZM44.1763 5.57116L38.5746 2.7735L35.8938 8.14129L41.4955 10.939L44.1763 5.57116ZM35.6174 7.99658C35.6563 8.01304 35.6921 8.03102 35.7256 8.05052L38.7427 2.86426C38.488 2.71607 38.2248 2.58473 37.954 2.47024L35.6174 7.99658ZM41.63 11.002C41.6599 11.0151 41.688 11.0292 41.7146 11.0442L44.6595 5.81665C44.4586 5.70346 44.2526 5.60061 44.0418 5.50808L41.63 11.002ZM60.7739 40.8182L66.2732 43.5623L68.9522 38.1935L63.4528 35.4494L60.7739 40.8182ZM66.1214 43.481C66.4101 43.6464 66.7136 43.798 67.0317 43.9359L69.4171 38.4304C69.2948 38.3774 69.1914 38.3249 69.104 38.2748L66.1214 43.481ZM45.9749 40.9051L51.3454 43.6033L54.039 38.2419L48.6686 35.5437L45.9749 40.9051ZM44.9474 40.3786C45.3286 40.6091 45.7368 40.8147 46.1717 40.9952L48.4718 35.4536C48.2994 35.3821 48.1619 35.3107 48.0526 35.2445L44.9474 40.3786ZM122.07 16.6118L117.476 14.3151L114.793 19.6816L119.387 21.9784L122.07 16.6118ZM123.682 17.4282C123.076 17.0635 122.463 16.7579 121.843 16.5097L119.614 22.0805C119.923 22.2039 120.247 22.3636 120.587 22.5685L123.682 17.4282ZM108.689 14.0962L106.005 12.754L103.322 18.1206L106.006 19.4627L108.689 14.0962ZM106.181 12.8494C106.044 12.7689 105.902 12.6984 105.758 12.6379L103.436 18.1703C103.338 18.129 103.241 18.0806 103.146 18.0252L106.181 12.8494ZM117.682 14.4282C113.377 11.8363 109.234 12.5208 106.032 14.0834L108.664 19.4755C110.591 18.5347 112.494 18.3083 114.587 19.5685L117.682 14.4282ZM80.7608 14.0258L77.1659 12.2284L74.4826 17.5949L78.0775 19.3924L80.7608 14.0258ZM80.9563 19.2854C81.7265 18.8259 82.6583 18.434 83.7793 18.1336L82.2264 12.338C80.6504 12.7603 79.193 13.3506 77.8821 14.1328L80.9563 19.2854ZM72.5328 27.4635H74.3862V21.4635H72.5328V27.4635ZM77.7681 29.3599C77.316 27.6725 77.2035 26.1685 77.3649 24.8199L71.4074 24.1071C71.1424 26.3219 71.3528 28.5998 71.9725 30.9128L77.7681 29.3599ZM65.1703 39.963L64.0795 36.6905L58.3874 38.5879L59.4782 41.8603L65.1703 39.963ZM59.5639 40.1317C59.9151 40.367 60.3908 40.6459 60.8705 40.8643L63.3562 35.4034C63.3018 35.3786 63.2229 35.3385 63.1305 35.2861C63.0393 35.2343 62.9588 35.1841 62.903 35.1467L59.5639 40.1317ZM57.4387 27.4635H60.398V21.4635H57.4387V27.4635ZM57.4194 24.1061L56.3456 33.0542L62.3029 33.7691L63.3766 24.8209L57.4194 24.1061ZM29.9879 42.9686C31.1272 42.2639 32.1406 41.4067 33.0184 40.4012L28.4984 36.4554C28.0194 37.0041 27.4671 37.4728 26.8317 37.8658L29.9879 42.9686ZM27.7584 38.4283V38.4635H33.7584V38.4283H27.7584ZM75.6506 11.9167L73.3612 12.0494L73.7084 18.0393L75.9979 17.9066L75.6506 11.9167ZM76.517 15.37C76.6042 14.5716 76.6765 13.9145 76.7269 13.4571C76.7521 13.2285 76.7719 13.0497 76.7854 12.9283C76.7921 12.8675 76.7972 12.8211 76.8007 12.7899C76.8024 12.7743 76.8037 12.7625 76.8046 12.7547C76.805 12.7507 76.8054 12.7478 76.8056 12.7458C76.8057 12.7448 76.8058 12.7441 76.8058 12.7436C76.8058 12.7434 76.8059 12.7432 76.8059 12.7431C76.8059 12.743 76.8059 12.743 76.8059 12.743C76.8059 12.743 76.8059 12.7429 76.8059 12.7429C76.8059 12.7429 76.8059 12.7429 73.8242 12.4116C70.8426 12.0804 70.8426 12.0804 70.8426 12.0804C70.8426 12.0804 70.8426 12.0804 70.8426 12.0804C70.8426 12.0805 70.8426 12.0805 70.8426 12.0806C70.8425 12.0807 70.8425 12.0809 70.8425 12.0812C70.8424 12.0817 70.8424 12.0825 70.8422 12.0835C70.842 12.0856 70.8417 12.0886 70.8412 12.0926C70.8403 12.1007 70.839 12.1127 70.8373 12.1285C70.8337 12.16 70.8286 12.2068 70.8218 12.268C70.8083 12.3903 70.7884 12.5699 70.7631 12.7995C70.7124 13.2587 70.64 13.9179 70.5525 14.7187L76.517 15.37ZM61.2706 12.7503L58.039 12.9376L58.3863 18.9276L61.6178 18.7402L61.2706 12.7503ZM61.1998 16.2095C61.3705 14.3684 61.5232 12.7397 61.6333 11.5713C61.6884 10.9872 61.7327 10.5182 61.7633 10.1953C61.7786 10.0338 61.7905 9.90894 61.7985 9.82445C61.8025 9.7822 61.8056 9.75006 61.8076 9.7285C61.8087 9.71772 61.8094 9.70959 61.81 9.70416C61.8102 9.70145 61.8104 9.69942 61.8105 9.69807C61.8106 9.69739 61.8106 9.69689 61.8107 9.69655C61.8107 9.69639 61.8107 9.69627 61.8107 9.69619C61.8107 9.69615 61.8107 9.69612 61.8107 9.6961C61.8107 9.69608 61.8107 9.69607 58.8242 9.41165C55.8378 9.12722 55.8377 9.12724 55.8377 9.12727C55.8377 9.12729 55.8377 9.12733 55.8377 9.12737C55.8377 9.12747 55.8377 9.1276 55.8377 9.12778C55.8377 9.12814 55.8376 9.12867 55.8375 9.12937C55.8374 9.13077 55.8372 9.13286 55.837 9.13563C55.8364 9.14115 55.8356 9.14939 55.8346 9.16028C55.8325 9.18205 55.8295 9.21441 55.8254 9.25689C55.8173 9.34183 55.8054 9.46721 55.7901 9.62914C55.7594 9.95301 55.7149 10.4231 55.6598 11.0085C55.5495 12.1791 55.3964 13.8109 55.2254 15.6558L61.1998 16.2095ZM27.7584 15.6835V20.5352H33.7584V15.6835H27.7584ZM32.9552 18.4922C31.9066 17.3646 30.6909 16.458 29.3156 15.7965L26.7148 21.2035C27.3913 21.5289 28.0044 21.9791 28.5615 22.5782L32.9552 18.4922ZM17.3137 11.5125C17.0504 11.5125 16.7879 11.5199 16.5265 11.5348L16.8691 17.5251C17.0147 17.5167 17.1628 17.5125 17.3137 17.5125V11.5125ZM19.6906 14.7386L20.211 7.27459L14.2255 6.85726L13.7051 14.3213L19.6906 14.7386ZM19.6165 32.5584C19.3737 32.0148 19.1983 31.2479 19.1983 30.1729H13.1983C13.1983 31.8832 13.4757 33.5225 14.1384 35.0058L19.6165 32.5584ZM20.066 26.3332C20.3646 25.923 20.6977 25.7134 21.2268 25.6272L20.2615 19.7053C18.1894 20.0431 16.4534 21.101 15.2152 22.8019L20.066 26.3332ZM17.9691 23.806C18.2108 24.3946 18.4002 25.3165 18.4002 26.6897H24.4002C24.4002 24.8282 24.1522 23.0678 23.5192 21.5265L17.9691 23.806ZM17.6167 30.1909C17.3664 30.5206 17.0584 30.7296 16.4721 30.8096L17.2828 36.7545C19.343 36.4736 21.1207 35.498 22.3953 33.8193L17.6167 30.1909ZM42.0325 23.389L41.3319 33.1979L47.3166 33.6254L48.0172 23.8165L42.0325 23.389ZM42.456 25.6724L43.6832 26.286L46.3665 20.9195L45.1393 20.3058L42.456 25.6724ZM45.0824 42.2317L46.7856 23.2574L40.8097 22.7209L39.1064 41.6953L45.0824 42.2317ZM20.4366 18.0737L26.6766 21.1848L29.3538 15.8152L23.1138 12.7041L20.4366 18.0737ZM90.0551 18.4182C90.2586 18.5082 90.4547 18.6063 90.6437 18.7124L93.5808 13.4805C93.2236 13.2799 92.8568 13.0966 92.4808 12.9305L90.0551 18.4182ZM98.695 36.7719L98.6194 36.8479L102.873 41.0791L102.949 41.0031L98.695 36.7719ZM99.3572 41.5055C99.4261 41.5441 99.4971 41.5809 99.5701 41.6155L102.145 36.196C102.194 36.2192 102.241 36.2438 102.287 36.2694L99.3572 41.5055ZM97.3549 20.2726C97.409 20.5107 97.4552 20.8108 97.4838 21.1822L103.466 20.7219C103.419 20.1104 103.336 19.5143 103.206 18.9429L97.3549 20.2726ZM96.6395 21.7101C97.2407 22.047 97.7892 22.4752 98.2894 23.0072L102.66 18.8969C101.752 17.9307 100.721 17.1196 99.5728 16.476L96.6395 21.7101ZM99.4476 16.4097L98.616 15.9939L95.9329 21.3606L96.7646 21.7764L99.4476 16.4097ZM90.7707 18.7798L95.9329 21.3606L98.616 15.9939L93.4538 13.4131L90.7707 18.7798ZM10.4549 6.41853C10.0956 6.3938 9.75264 6.28868 9.44939 6.11936L12.3744 0.880637C11.9215 0.627754 11.4085 0.469976 10.8669 0.432694L10.4549 6.41853ZM9.56462 6.18046L15.6527 9.24052L18.3473 3.87961L12.2592 0.819545L9.56462 6.18046ZM78.9889 40.4008L79.7224 40.7676L82.4057 35.401L81.6722 35.0342L78.9889 40.4008ZM79.7224 40.7676L84.9889 43.4008L87.6722 38.0342L82.4057 35.401L79.7224 40.7676ZM34.0307 9.83365C33.9703 9.79555 33.9072 9.74798 33.8412 9.68709L29.7715 14.0959C30.0981 14.3973 30.4506 14.6693 30.829 14.9081L34.0307 9.83365ZM40.3744 13.0024L33.7758 9.68975L31.0839 15.052L37.6824 18.3646L40.3744 13.0024ZM77.1657 33.7283L73.2015 31.7464L70.5185 37.1132L74.4828 39.095L77.1657 33.7283ZM74.8533 34.2293C74.8258 33.8184 74.8242 33.2729 74.8242 32.4116H68.8242C68.8242 33.1975 68.8227 33.9737 68.8667 34.6303L74.8533 34.2293ZM60.8186 32.7546L58.0718 31.5303L55.6293 37.0106L58.376 38.2349L60.8186 32.7546ZM56.3242 33.4116C56.3242 33.9092 56.3084 35.1263 56.7537 36.4507L62.4409 34.5387C62.34 34.2387 62.3242 33.9111 62.3242 33.4116H56.3242ZM59.8465 34.1143C59.8251 33.7052 59.8242 33.1829 59.8242 32.4116H53.8242C53.8242 33.1275 53.8233 33.8269 53.8546 34.4267L59.8465 34.1143Z" fill="#E33700" mask="url(#path-5-outside-1)"/>
<path fill-rule="evenodd" clip-rule="evenodd" d="M3.06414 36.3238C2.90691 36.6519 3.04797 37.053 3.38641 37.1865L7.50348 38.8108C7.7363 38.9026 8.00384 38.8419 8.15977 38.6461C8.62129 38.0666 8.96996 37.4304 9.20577 36.7374C9.37957 36.2267 10.1226 36.0245 10.5092 36.4007C12.2316 38.077 14.3875 38.9152 16.9771 38.9152C18.9643 38.9152 20.7752 38.4158 22.4098 37.4172C24.0765 36.3863 25.3746 34.9528 26.3041 33.1165C27.2656 31.2481 27.7464 29.1058 27.7464 26.6897C27.7464 22.8239 26.8009 19.8279 24.9098 17.7018C23.0188 15.5756 20.4868 14.5125 17.3137 14.5125C15.9355 14.5125 14.6374 14.7702 13.4195 15.2856C12.7239 15.58 12.0859 15.9269 11.5053 16.3263C11.0521 16.6381 10.3651 16.3025 10.4033 15.7537L11.2182 4.06593C11.2413 3.73515 10.9917 3.44838 10.6609 3.42561L4.58951 3.00764C4.24274 2.98377 3.9483 3.25863 3.9483 3.60622V31.8601C3.9483 32.9877 3.85215 33.938 3.65984 34.7111C3.52032 35.2487 3.32175 35.7863 3.06414 36.3238ZM20.006 32.0051C19.0765 33.2293 17.7304 33.8413 15.9675 33.8413C14.0765 33.8413 12.6342 33.2454 11.6406 32.0534C10.6791 30.8293 10.1983 29.2024 10.1983 27.1729V26.3031C10.1983 24.4346 10.6791 22.8561 11.6406 21.5675C12.6021 20.2467 13.9804 19.5863 15.7752 19.5863C19.5252 19.5863 21.4002 21.9541 21.4002 26.6897C21.4002 28.9769 20.9355 30.7487 20.006 32.0051ZM31.8064 11.8915C32.6384 12.6595 33.6784 13.0435 34.9264 13.0435C36.1744 13.0435 37.1984 12.6595 37.9984 11.8915C38.8304 11.1235 39.2464 10.1475 39.2464 8.9635C39.2464 7.7795 38.8304 6.8035 37.9984 6.0355C37.1984 5.2675 36.1744 4.8835 34.9264 4.8835C33.6784 4.8835 32.6384 5.2675 31.8064 6.0355C31.0064 6.8035 30.6064 7.7795 30.6064 8.9635C30.6064 10.1475 31.0064 11.1235 31.8064 11.8915ZM38.0944 16.6835L30.7584 15.6835V38.4635L36.0944 38.9635L38.0944 16.6835ZM46.3242 5.41165L52.8242 6.41165C52.8242 6.41165 52.3754 11.125 51.9029 16.2984L61.4442 15.7453L62.3242 8.41165L67.8242 9.41165C67.8242 9.41165 67.5314 12.0472 67.1698 15.4134L75.8242 14.9116L72.1842 21.4635H66.5328C66.1468 25.2252 65.8242 28.6085 65.8242 29.4116C65.8242 31.9116 65.8242 32.9116 66.8242 33.4116C67.8242 33.9116 68.9909 33.745 69.8242 33.4116L71.3242 37.9116C70.1576 38.5783 66.4242 39.6116 62.8242 38.4116C59.3242 37.245 59.3242 34.5783 59.3242 33.4116L60.758 21.4635H51.4387C51.0958 25.3584 50.8242 28.6747 50.8242 29.4116C50.8242 31.9116 50.8242 32.9116 51.8242 33.4116C52.8242 33.9116 53.9909 33.745 54.8242 33.4116L56.3242 37.9116C55.1576 38.5783 51.4242 39.6116 47.8242 38.4116C44.3242 37.245 44.3242 34.5783 44.3242 33.4116L45.1777 21.4635H40.7464L41.3242 16.9116L45.5202 16.6684L46.3242 5.41165ZM100.515 38.3635V22.0441C100.515 21.1071 100.436 20.2949 100.28 19.6077C100.185 19.0818 100.007 18.5101 99.7464 17.8927C99.6121 17.5742 99.7538 17.2014 100.074 17.0706L104.147 15.4041C104.427 15.2895 104.751 15.4007 104.88 15.6744C105.065 16.0646 105.234 16.5012 105.387 16.9839C105.525 17.3619 105.982 17.5347 106.328 17.3301C109.094 15.6956 112.501 14.8105 116.135 16.9984C116.387 17.1501 116.477 17.4687 116.355 17.7365L114.683 21.416C114.532 21.7478 114.121 21.8725 113.802 21.6961C113.065 21.2879 111.795 20.6663 110.911 20.6663C109.594 20.6663 108.584 21.1504 107.959 22.1188C107.334 23.0558 107.022 24.4771 107.022 26.3824V38.3635C107.022 38.6949 106.753 38.9635 106.422 38.9635H101.115C100.783 38.9635 100.515 38.6949 100.515 38.3635Z" fill="white"/>
<path d="M89.9721 38.4635C86.263 39.4574 83.0491 39.2087 80.3305 37.7175C77.6428 36.218 75.8228 33.691 74.8703 30.1364C74.2492 27.8182 74.1311 25.6467 74.5162 23.6221C74.9013 21.5974 75.8114 19.8628 77.2464 18.4181C78.6731 16.9426 80.5919 15.8818 83.0029 15.2358C85.352 14.6064 87.5246 14.5543 89.5205 15.0796C91.5082 15.574 93.178 16.5511 94.5299 18.0109C95.8735 19.4399 96.8228 21.1898 97.3777 23.2608C97.651 24.2808 97.5222 25.1601 96.9913 25.8987C96.483 26.5981 95.6415 27.1051 94.467 27.4198L81.5777 30.8735C81.9172 32.1408 82.7315 33.0159 84.0203 33.4988C85.3401 33.9733 86.881 33.9746 88.6428 33.5025C90.0956 33.1132 91.2627 32.5852 92.1441 31.9183C93.0482 31.2123 93.7831 30.3693 94.3487 29.3896L97.2784 30.8151C97.2784 32.9635 96.2464 34.4635 94.7464 35.9635C93.4638 37.2461 92.0122 37.9169 89.9721 38.4635ZM90.8691 23.2655C90.5047 21.9054 89.7007 20.9448 88.4571 20.3836C87.2361 19.7831 85.8528 19.69 84.3073 20.1041C82.8237 20.5016 81.6878 21.2698 80.8997 22.4086C80.1342 23.5082 79.9336 24.738 80.2981 26.098L90.8691 23.2655Z" fill="white"/>
</svg>
