<svg width="46" height="40" viewBox="0 0 46 40" fill="none" xmlns="http://www.w3.org/2000/svg">
<path d="M4.66667 14.5833C6.29167 9.16667 15.5 9.16667 19.8333 9.16667C24.1667 9.16667 33.375 9.16667 35 14.5833M4.66667 14.5833C3.04167 20 2.5 22.1667 2.5 25.4167C2.5 28.6667 3.58333 31.9166 10.625 33L12.25 29.2083C12.25 29.2083 16.5833 30.2917 19.8333 30.2917C23.0833 30.2917 27.4167 29.2083 27.4167 29.2083L29.0417 33C36.0833 31.9166 37.1667 28.6667 37.1667 25.4167C37.1667 22.1667 36.625 20 35 14.5833M4.66667 14.5833C7.375 7.54167 8.45833 7.54167 14.4167 7M35 14.5833C32.2917 7.54167 31.2083 7.54167 25.25 7" stroke="#FF5B18" stroke-width="3" stroke-linecap="round" stroke-linejoin="round"/>
<path d="M16.5854 21.625C16.5854 23.1208 15.3728 24.3334 13.877 24.3334C12.3813 24.3334 11.1687 23.1208 11.1687 21.625C11.1687 20.1292 12.3813 18.9167 13.877 18.9167C15.3728 18.9167 16.5854 20.1292 16.5854 21.625Z" fill="#FF5B18"/>
<path d="M28.5041 21.625C28.5041 23.1208 27.2915 24.3334 25.7958 24.3334C24.3 24.3334 23.0874 23.1208 23.0874 21.625C23.0874 20.1292 24.3 18.9167 25.7958 18.9167C27.2915 18.9167 28.5041 20.1292 28.5041 21.625Z" fill="#FF5B18"/>
</svg>
