<svg width="40" height="40" viewBox="0 0 40 40" fill="none" xmlns="http://www.w3.org/2000/svg">
<path fill-rule="evenodd" clip-rule="evenodd" d="M7.92041 15.2386C8.01093 15.0035 8.09821 14.7786 8.18268 14.5634C8.86584 13.2016 10.335 12.3434 12.4179 11.8354C14.7769 11.26 17.4716 11.2531 19.5 11.2531C21.5284 11.2531 24.2231 11.26 26.5821 11.8354C27.5747 12.0775 28.428 12.3991 29.1232 12.8169C29.8868 13.2757 30.4597 13.8505 30.8173 14.5634C30.8581 14.6672 30.8995 14.7733 30.9416 14.8816C30.9868 14.9979 31.0327 15.1169 31.0796 15.2386C32.5662 20.1964 33 22.0052 33 24.7531C33 26.2209 32.8577 27.2762 32.2375 28.1031C31.7736 28.7216 30.8975 29.3931 29.1195 29.8845C28.8964 29.9462 28.6591 30.005 28.4066 30.0606L27.3787 27.6622C27.3127 27.5081 27.2235 27.3702 27.1167 27.2512C27.0075 27.1295 26.8799 27.0276 26.7399 26.9483C26.6908 26.9204 26.6401 26.8954 26.5882 26.8732C26.2814 26.7424 25.9302 26.7131 25.5882 26.8107L25.583 26.8122L25.5585 26.819L25.5197 26.8297L25.4538 26.8476C25.3602 26.8728 25.2205 26.9096 25.0424 26.9541C24.6859 27.0433 24.1782 27.1628 23.5808 27.2822C22.3706 27.5243 20.8563 27.7531 19.5 27.7531C18.1437 27.7531 16.6294 27.5243 15.4192 27.2822C14.8218 27.1628 14.3141 27.0433 13.9576 26.9541C13.7795 26.9096 13.6398 26.8728 13.5462 26.8476C13.4994 26.835 13.4642 26.8253 13.4415 26.819L13.417 26.8122L13.4121 26.8108C12.6861 26.6037 11.9187 26.9682 11.6213 27.6622L10.5934 30.0606C9.89547 29.9071 9.31346 29.7283 8.82691 29.5342C7.7348 29.0984 7.1237 28.5847 6.76251 28.1031C6.14233 27.2762 6 26.2209 6 24.7531C6 22.0052 6.43384 20.1964 7.92041 15.2386ZM16.3942 8.30728C16.4788 8.09509 16.5159 7.86032 16.4938 7.61728C16.4634 7.28247 16.3251 6.9834 16.1165 6.75121C16.0222 6.64634 15.9136 6.55511 15.794 6.4804C15.7066 6.42576 15.6133 6.37996 15.5156 6.34411C15.3137 6.27006 15.0926 6.23848 14.8642 6.25925L14.6917 6.2749C13.4239 6.38996 12.3245 6.48975 11.4089 6.67285C10.4177 6.8711 9.51483 7.18848 8.7041 7.81906C7.9057 8.44003 7.31622 9.2721 6.78149 10.2898C6.35223 11.1068 5.92444 12.1112 5.44568 13.3257C5.29742 13.6376 5.16907 13.9693 5.06323 14.3221C3.56299 19.323 3 21.5111 3 24.7531C3 26.2852 3.10767 28.23 4.36249 29.9031C4.96566 30.7073 5.77767 31.3791 6.83076 31.9196C6.91464 31.9627 7.00005 32.0049 7.08701 32.0463C7.21395 32.1067 7.34418 32.1653 7.47776 32.2222C8.52764 32.6692 9.78416 33.0068 11.2719 33.2357C11.9482 33.3397 12.6092 32.9729 12.8787 32.344L13.8752 30.019C13.9866 30.0445 14.1038 30.0707 14.2263 30.0975C14.416 30.1389 14.6182 30.1814 14.8308 30.224C16.1206 30.4819 17.8563 30.7531 19.5 30.7531C21.1437 30.7531 22.8794 30.4819 24.1692 30.224C24.5191 30.154 24.8409 30.084 25.1249 30.019L26.1213 32.344C26.2699 32.6908 26.5376 32.9579 26.8612 33.1103C27.0238 33.1869 27.2005 33.2345 27.3834 33.2487C27.4966 33.2575 27.6121 33.2535 27.7281 33.2357C31.1627 32.7072 33.3649 31.5998 34.6375 29.9031C35.8923 28.23 36 26.2852 36 24.7531C36 21.5111 35.437 19.323 33.9368 14.3221C33.8309 13.9693 33.7026 13.6376 33.5543 13.3257C33.0756 12.1112 32.6478 11.1068 32.2185 10.2898C31.6838 9.2721 31.0943 8.44003 30.2959 7.81906C30.1586 7.71228 30.0187 7.61448 29.8761 7.52472C29.785 7.46734 29.6928 7.41324 29.5995 7.36218C29.4592 7.28537 29.3165 7.21543 29.1714 7.15154C28.6727 6.93201 28.1457 6.78378 27.5911 6.67285C26.6755 6.48975 25.5761 6.38996 24.3083 6.2749L24.1358 6.25925C23.3108 6.18424 22.5812 6.79227 22.5062 7.61728C22.4841 7.86032 22.5212 8.09509 22.6058 8.30728C21.4657 8.25302 20.4142 8.25305 19.5594 8.25308H19.4406C18.5859 8.25305 17.5343 8.25302 16.3942 8.30728ZM16.5 21.2531C16.5 22.6338 15.3807 23.7531 14 23.7531C13.801 23.7531 13.6074 23.7298 13.4218 23.6859C13.2897 23.6546 13.1616 23.6128 13.0386 23.5615C12.933 23.5175 12.8311 23.4665 12.7334 23.409C11.9953 22.9744 11.5 22.1716 11.5 21.2531C11.5 19.8724 12.6193 18.7531 14 18.7531C14.3556 18.7531 14.6938 18.8273 15 18.9611C15.0687 18.9911 15.1357 19.0241 15.201 19.0599C15.3346 19.1333 15.4609 19.2185 15.5782 19.3141C16.1408 19.7725 16.5 20.4709 16.5 21.2531ZM25 23.7531C26.3807 23.7531 27.5 22.6338 27.5 21.2531C27.5 20.4709 27.1408 19.7725 26.5782 19.3141C26.1479 18.9634 25.5985 18.7531 25 18.7531C23.6193 18.7531 22.5 19.8724 22.5 21.2531C22.5 22.4348 23.3198 23.425 24.4218 23.6859C24.6074 23.7298 24.801 23.7531 25 23.7531Z" fill="#E33700"/>
<path fill-rule="evenodd" clip-rule="evenodd" d="M8.92041 15.7325C9.01093 15.4973 9.09821 15.2725 9.18268 15.0572C9.86584 13.6954 11.335 12.8372 13.4179 12.3292C15.7769 11.7538 18.4716 11.7469 20.5 11.7469C22.5284 11.7469 25.2231 11.7538 27.5821 12.3292C28.1411 12.4655 28.6559 12.6271 29.1232 12.8169C30.397 13.3342 31.3175 14.0609 31.8173 15.0572C31.8581 15.161 31.8995 15.2671 31.9416 15.3755C31.9868 15.4918 32.0327 15.6107 32.0796 15.7325C33.5662 20.6903 34 22.499 34 25.2469C34 26.7148 33.8577 27.77 33.2375 28.5969C32.7154 29.2931 31.6711 30.0563 29.4066 30.5544L29.1195 29.8845L28.3787 28.156C28.2468 27.8481 28.0224 27.6051 27.7502 27.448C27.6944 27.4158 27.6367 27.3872 27.5773 27.3625C27.4317 27.3017 27.2762 27.2637 27.1167 27.2512C26.943 27.2376 26.7644 27.2543 26.5882 27.3046L26.583 27.306L26.5585 27.3129L26.5197 27.3236L26.4538 27.3415C26.3602 27.3667 26.2205 27.4034 26.0424 27.448C25.6859 27.5371 25.1782 27.6566 24.5808 27.7761C23.3706 28.0181 21.8563 28.2469 20.5 28.2469C19.1437 28.2469 17.6294 28.0181 16.4192 27.7761C15.8218 27.6566 15.3141 27.5371 14.9576 27.448C14.7795 27.4034 14.6398 27.3667 14.5462 27.3415C14.4994 27.3289 14.4642 27.3192 14.4415 27.3129L14.417 27.306L14.4121 27.3046C13.6861 27.0975 12.9187 27.4621 12.6213 28.156L11.5934 30.5544C10.3337 30.2773 9.45158 29.9182 8.82691 29.5342C8.32865 29.2279 7.99417 28.9058 7.76251 28.5969C7.14233 27.77 7 26.7148 7 25.2469C7 22.499 7.43384 20.6902 8.92041 15.7325ZM17.3942 8.80112C17.4788 8.58893 17.5159 8.35416 17.4938 8.11111C17.4482 7.60924 17.1603 7.18767 16.7561 6.9513C16.6924 6.91406 16.6258 6.88141 16.5569 6.85377C16.4184 6.79829 16.2703 6.763 16.1165 6.75121C16.0338 6.74487 15.9495 6.74533 15.8642 6.75308L15.6917 6.76874C14.4239 6.88379 13.3245 6.98358 12.4089 7.16669C11.4177 7.36493 10.5148 7.68231 9.7041 8.3129C8.9057 8.93387 8.31622 9.76593 7.78149 10.7836C7.35223 11.6006 6.92444 12.605 6.44568 13.8196C6.29742 14.1315 6.16907 14.4632 6.06323 14.8159C4.56299 19.8168 4 22.0049 4 25.2469C4 26.7791 4.10767 28.7238 5.36249 30.3969C5.89645 31.1089 6.59409 31.717 7.47776 32.2222C7.60097 32.2927 7.72781 32.3611 7.85832 32.4275C7.92414 32.4611 7.99089 32.494 8.05859 32.5265C9.18832 33.0687 10.5807 33.4693 12.2719 33.7295C12.9482 33.8335 13.6092 33.4667 13.8787 32.8378L14.8752 30.5128C14.9866 30.5383 15.1038 30.5646 15.2263 30.5913C15.416 30.6328 15.6182 30.6753 15.8308 30.7178C17.1206 30.9757 18.8563 31.2469 20.5 31.2469C22.1437 31.2469 23.8794 30.9757 25.1692 30.7178C25.5191 30.6478 25.8409 30.5778 26.1249 30.5128L27.1213 32.8378C27.1871 32.9914 27.2763 33.1294 27.3834 33.2487C27.4934 33.3713 27.6222 33.4741 27.764 33.5539C27.813 33.5815 27.8635 33.6064 27.9154 33.6283C28.1653 33.7342 28.4453 33.773 28.7281 33.7295C32.1627 33.201 34.3649 32.0937 35.6375 30.3969C36.8923 28.7238 37 26.7791 37 25.2469C37 22.0049 36.437 19.8168 34.9368 14.8159C34.8309 14.4632 34.7026 14.1315 34.5543 13.8196C34.0756 12.605 33.6478 11.6006 33.2185 10.7836C32.6838 9.76593 32.0943 8.93387 31.2959 8.3129C31.0591 8.12873 30.8145 7.97128 30.5621 7.83571C30.4468 7.77377 30.3298 7.7164 30.2113 7.66314C30.101 7.61357 29.9892 7.56755 29.8761 7.52472C29.4659 7.3694 29.0375 7.25596 28.5911 7.16669C27.6755 6.98358 26.5761 6.88379 25.3083 6.76874L25.1358 6.75308C24.3108 6.67807 23.5812 7.2861 23.5062 8.11111C23.4841 8.35416 23.5212 8.58893 23.6058 8.80112C22.4657 8.74686 21.4142 8.74689 20.5594 8.74692H20.4406C19.5859 8.74689 18.5343 8.74686 17.3942 8.80112ZM17.5 21.7469C17.5 23.1276 16.3807 24.2469 15 24.2469C14.6134 24.2469 14.2473 24.1592 13.9205 24.0025C13.8957 23.9906 13.8711 23.9783 13.8468 23.9656C13.6953 23.8868 13.553 23.7928 13.4218 23.6859C12.8592 23.2275 12.5 22.5291 12.5 21.7469C12.5 20.3662 13.6193 19.2469 15 19.2469C15.199 19.2469 15.3926 19.2702 15.5782 19.3141C15.744 19.3534 15.9034 19.4091 16.0546 19.4796C16.0861 19.4943 16.1173 19.5096 16.1481 19.5255C16.9512 19.9415 17.5 20.7801 17.5 21.7469ZM26 24.2469C27.3807 24.2469 28.5 23.1276 28.5 21.7469C28.5 20.5652 27.6802 19.5751 26.5782 19.3141C26.3926 19.2702 26.199 19.2469 26 19.2469C24.6193 19.2469 23.5 20.3662 23.5 21.7469C23.5 22.5291 23.8592 23.2275 24.4218 23.6859C24.8521 24.0366 25.4015 24.2469 26 24.2469Z" fill="#E33700"/>
<path d="M29.5995 7.36218C29.6928 7.41324 29.785 7.46734 29.8761 7.52472C29.9892 7.56755 30.101 7.61357 30.2113 7.66314L29.5995 7.36218Z" fill="#E33700"/>
<path d="M7.47776 32.2222C7.34418 32.1653 7.21395 32.1067 7.08701 32.0463L7.85832 32.4275C7.72781 32.3611 7.60097 32.2927 7.47776 32.2222Z" fill="#E33700"/>
<path d="M27.3834 33.2487C27.2005 33.2345 27.0238 33.1869 26.8612 33.1103L27.764 33.5539C27.6222 33.4741 27.4934 33.3713 27.3834 33.2487Z" fill="#E33700"/>
<path d="M27.5773 27.3625L26.7399 26.9483C26.8799 27.0276 27.0075 27.1295 27.1167 27.2512C27.2762 27.2637 27.4317 27.3017 27.5773 27.3625Z" fill="#E33700"/>
<path d="M15.794 6.4804C15.9136 6.55511 16.0222 6.64634 16.1165 6.75121C16.2703 6.763 16.4184 6.79829 16.5569 6.85377L15.794 6.4804Z" fill="#E33700"/>
<path d="M15.201 19.0599C15.3346 19.1333 15.4609 19.2185 15.5782 19.3141C15.744 19.3534 15.9034 19.4091 16.0546 19.4796L15.201 19.0599Z" fill="#E33700"/>
<path d="M13.4218 23.6859C13.2897 23.6546 13.1616 23.6128 13.0386 23.5615L13.8468 23.9656C13.6953 23.8868 13.553 23.7928 13.4218 23.6859Z" fill="#E33700"/>
<path d="M26.201 19.0599C26.3346 19.1333 26.4609 19.2185 26.5782 19.3141C26.744 19.3534 26.9034 19.4091 27.0546 19.4796L26.201 19.0599Z" fill="#E33700"/>
<path d="M24.4218 23.6859C24.2897 23.6546 24.1616 23.6128 24.0386 23.5615L24.8468 23.9656C24.6953 23.8868 24.553 23.7928 24.4218 23.6859Z" fill="#E33700"/>
<path d="M6.5 14.7531C8 9.75308 15.5 9.75308 19.5 9.75308C23.5 9.75308 31 9.75308 32.5 14.7531M6.5 14.7531C5 19.7531 4.5 21.7531 4.5 24.7531C4.5 27.7531 5 30.7531 11.5 31.7531L13 28.2531C13 28.2531 16.5 29.2531 19.5 29.2531C22.5 29.2531 26 28.2531 26 28.2531L27.5 31.7531C34 30.7531 34.5 27.7531 34.5 24.7531C34.5 21.7531 34 19.7531 32.5 14.7531M6.5 14.7531C9 8.25308 9.5 8.25308 15 7.75308M32.5 14.7531C30 8.25308 29.5 8.25308 24 7.75308" stroke="#FF5B18" stroke-width="3" stroke-linecap="round" stroke-linejoin="round"/>
<circle cx="14" cy="21.2531" r="2.5" fill="#FF5B18"/>
<circle cx="25" cy="21.2531" r="2.5" fill="#FF5B18"/>
</svg>
