<svg width="42" height="40" viewBox="0 0 42 40" fill="none" xmlns="http://www.w3.org/2000/svg">
<path d="M30.4017 8.96479C29.4356 7.28144 27.7454 6 25 6C20 6 18 10.2503 18.5 14.5007C11.3 14.0756 6.16667 9.36485 4.5 7.06258C2.1 13.0131 5.33333 15.7916 7 16.5C5.4 16.075 3.33333 15.6771 3 15.5C3.8 19.7503 8 22.293 9.5 23.0013H5.5C7.5 26.4016 11.3333 27.8229 12.5 28C9.3 30.5502 4.33333 30.9707 2.5 30.9707C22.5 41.0653 32 23.5326 31.5 13.4381C31.5 13.0073 31.4726 12.5571 31.4129 12.1006M30.4017 8.96479L33 7.06258L30.7359 9.62507M30.4017 8.96479C30.5246 9.17898 30.6358 9.39968 30.7359 9.62507M30.7359 9.62507C30.9919 10.201 31.1757 10.8076 31.2988 11.4147M31.2988 11.4147L34.5 10.7816L31.4129 12.1006M31.2988 11.4147C31.3453 11.6438 31.3831 11.8729 31.4129 12.1006" stroke="#FF5B18" stroke-width="3" stroke-linejoin="round"/>
</svg>
