<svg width="40" height="40" viewBox="0 0 40 40" fill="none" xmlns="http://www.w3.org/2000/svg">
<path fill-rule="evenodd" clip-rule="evenodd" d="M21.9355 9.23843C21.1172 10.466 20.7702 12.2105 20.9896 14.0754C21.0414 14.5161 20.8955 14.9572 20.5909 15.28C20.2864 15.6028 19.8545 15.7742 19.4115 15.748C13.4843 15.3981 8.87863 12.3832 6.20633 9.84188C6.02802 11.1742 6.25244 12.1559 6.58276 12.8597C7.11576 13.9954 8.03005 14.6329 8.58662 14.8695C9.31097 15.1774 9.67418 15.9927 9.41856 16.7371C9.16294 17.4815 8.37544 17.9018 7.61476 17.6997C7.25242 17.6034 6.86459 17.5085 6.47487 17.4164C6.90891 18.0896 7.44059 18.697 8.01397 19.2352C9.21295 20.3607 10.4983 21.0917 11.1404 21.395C11.7752 21.6947 12.1171 22.3946 11.9635 23.0795C11.8099 23.7645 11.2018 24.2513 10.4999 24.2513H9.76158C10.1905 24.6026 10.6362 24.9076 11.0771 25.1689C12.3045 25.8963 13.3725 26.2134 13.725 26.267C14.3145 26.3565 14.7951 26.7866 14.949 27.3627C15.103 27.9388 14.901 28.5514 14.4347 28.923C12.8745 30.1664 11.0007 30.9378 9.26114 31.4182C11.9177 32.1879 14.2889 32.3839 16.3847 32.1673C19.7284 31.8218 22.4826 30.4153 24.6773 28.4163C29.1273 24.3633 31.2317 17.906 31.0017 13.2623C31.0005 13.2375 30.9999 13.2128 30.9999 13.1881C30.9999 12.8201 30.9764 12.435 30.9254 12.0451C30.9 11.851 30.8679 11.6564 30.8286 11.4628C30.7243 10.9484 30.5711 10.4478 30.365 9.98415C30.2846 9.80314 30.1965 9.62854 30.1005 9.46138C29.3849 8.2144 28.1747 7.24997 25.9999 7.24997C23.9861 7.24997 22.7114 8.07449 21.9355 9.23843ZM5.90819 21.3729C4.45171 19.9921 2.99922 18.0429 2.52575 15.5274C2.41911 14.9609 2.64663 14.3833 3.11103 14.0417C3.29267 13.9081 3.49799 13.8198 3.71113 13.778C2.9282 11.8506 2.86107 9.34495 4.10876 6.25148C4.31295 5.74522 4.77604 5.38986 5.3179 5.32363C5.61093 5.28782 5.90198 5.33963 6.15812 5.4647C6.16852 5.46978 6.17887 5.47498 6.18915 5.4803C6.35129 5.56417 6.49857 5.67784 6.62236 5.81752C6.65488 5.85423 6.68578 5.89273 6.71491 5.93296C8.07908 7.81738 12.1794 11.6327 17.9331 12.5699C17.9971 10.7857 18.4692 9.02969 19.4393 7.57442C20.7884 5.55062 23.0137 4.24997 25.9999 4.24997C27.3669 4.24997 28.5393 4.52164 29.5303 4.98951C29.6322 5.03765 29.7323 5.08786 29.8304 5.14008C29.9433 5.20012 30.0537 5.26281 30.1615 5.32801C30.7578 5.68848 31.2778 6.12576 31.7253 6.61875L33.1138 5.60223C33.5498 5.28301 34.1061 5.23175 34.5773 5.42791C34.6428 5.45519 34.7067 5.48725 34.7683 5.52404C34.8919 5.59774 35.0066 5.69042 35.108 5.80163C35.1129 5.80692 35.1176 5.81223 35.1224 5.81757C35.6244 6.3837 35.6265 7.23701 35.124 7.80574L33.7631 9.346L35.2089 9.06009C35.5404 8.99453 35.8702 9.04383 36.1549 9.18215C36.1652 9.18713 36.1753 9.19222 36.1855 9.19743C36.35 9.28202 36.4985 9.39672 36.6224 9.53635C36.7606 9.69199 36.8681 9.8786 36.9331 10.089C37.1597 10.8228 36.7954 11.6093 36.0892 11.911L33.9937 12.8063C33.9974 12.922 33.9994 13.0369 33.9998 13.1506C34.2573 18.5976 31.8608 25.9315 26.6974 30.6343C24.0797 33.0185 20.74 34.7333 16.6931 35.1515C12.6542 35.5688 8.02278 34.6838 2.82399 32.0598C2.20389 31.7468 1.87979 31.049 2.04065 30.3733C2.20151 29.6976 2.80526 29.2207 3.49987 29.2207C4.32445 29.2207 5.91128 29.124 7.65589 28.7287C8.44708 28.5495 9.24605 28.3143 10.0089 28.0115C9.8561 27.9286 9.70214 27.8413 9.54765 27.7498C8.04535 26.8595 6.37112 25.4911 5.20694 23.5118C4.93415 23.048 4.93066 22.4736 5.19781 22.0066C5.36223 21.7191 5.61368 21.4994 5.90819 21.3729Z" fill="#E33700"/>
<path fill-rule="evenodd" clip-rule="evenodd" d="M22.9355 9.73843C22.1172 10.966 21.7702 12.7105 21.9896 14.5754C22.0414 15.0161 21.8955 15.4572 21.5909 15.78C21.2864 16.1028 20.8545 16.2742 20.4115 16.248C14.4843 15.8981 9.87863 12.8832 7.20633 10.3419C7.02802 11.6742 7.25244 12.6559 7.58276 13.3597C8.11576 14.4954 9.03005 15.1329 9.58662 15.3695C10.311 15.6774 10.6742 16.4927 10.4186 17.2371C10.1629 17.9815 9.37544 18.4018 8.61476 18.1997C8.25242 18.1034 7.86459 18.0085 7.47487 17.9164C7.90891 18.5896 8.44059 19.197 9.01397 19.7352C10.213 20.8607 11.4983 21.5917 12.1404 21.895C12.7752 22.1947 13.1171 22.8946 12.9635 23.5795C12.8099 24.2645 12.2018 24.7513 11.4999 24.7513H10.7616C11.1905 25.1026 11.6362 25.4076 12.0771 25.6689C13.3045 26.3963 14.3725 26.7134 14.725 26.767C15.3145 26.8565 15.7951 27.2866 15.949 27.8627C16.103 28.4388 15.901 29.0514 15.4347 29.423C13.8745 30.6664 12.0007 31.4378 10.2611 31.9182C12.9177 32.6879 15.2889 32.8839 17.3847 32.6673C20.7284 32.3218 23.4826 30.9153 25.6773 28.9163C30.1273 24.8633 32.2317 18.406 32.0017 13.7623C32.0005 13.7375 31.9999 13.7128 31.9999 13.6881C31.9999 13.3201 31.9764 12.935 31.9254 12.5451C31.9 12.351 31.8679 12.1564 31.8286 11.9628C31.7243 11.4484 31.5711 10.9478 31.365 10.4842C31.2846 10.3031 31.1965 10.1285 31.1005 9.96138C30.3849 8.7144 29.1747 7.74997 26.9999 7.74997C24.9861 7.74997 23.7114 8.57449 22.9355 9.73843ZM6.90819 21.8729C5.45171 20.4921 3.99922 18.5429 3.52575 16.0274C3.41911 15.4609 3.64663 14.8833 4.11103 14.5417C4.29267 14.4081 4.49799 14.3198 4.71113 14.278C3.9282 12.3506 3.86107 9.84495 5.10876 6.75148C5.31295 6.24522 5.77605 5.88986 6.3179 5.82363C6.42009 5.81114 6.52204 5.80931 6.62236 5.81752C6.78627 5.83095 6.94581 5.87119 7.09488 5.93561C7.14808 5.9586 7.19995 5.98467 7.25021 6.0137C7.42991 6.11748 7.58903 6.25908 7.71491 6.43296C9.07908 8.31738 13.1794 12.1327 18.9331 13.0699C18.9971 11.2857 19.4692 9.52969 20.4393 8.07442C21.7884 6.05062 24.0137 4.74997 26.9999 4.74997C28.2011 4.74997 29.2519 4.95972 30.1615 5.32801C30.2706 5.37217 30.3776 5.41861 30.4827 5.46724C30.6172 5.52956 30.7485 5.59549 30.8765 5.66482C31.5936 6.05324 32.2079 6.54877 32.7253 7.11875L34.1138 6.10223C34.4152 5.88161 34.7739 5.78899 35.1224 5.81757C35.2669 5.82942 35.4096 5.86213 35.5458 5.91521C35.6327 5.94912 35.717 5.99134 35.7973 6.04175C35.9098 6.1124 36.0145 6.19915 36.108 6.30163C36.6243 6.86759 36.6312 7.73165 36.124 8.30574L34.7631 9.846L36.2089 9.56009C36.3481 9.53256 36.487 9.52529 36.6224 9.53635C36.8099 9.55167 36.9906 9.60215 37.1561 9.68272C37.5177 9.85882 37.8064 10.1786 37.9331 10.589C38.1597 11.3228 37.7954 12.1093 37.0892 12.411L34.9937 13.3063C34.9974 13.422 34.9994 13.5369 34.9998 13.6506C35.2573 19.0976 32.8608 26.4315 27.6974 31.1343C25.0797 33.5185 21.74 35.2333 17.6931 35.6515C13.6542 36.0688 9.02278 35.1838 3.82399 32.5598C3.20389 32.2468 2.87979 31.549 3.04065 30.8733C3.20151 30.1976 3.80526 29.7207 4.49987 29.7207C5.32445 29.7207 6.91128 29.624 8.65589 29.2287C9.44708 29.0495 10.246 28.8143 11.0089 28.5115C10.8561 28.4286 10.7021 28.3413 10.5476 28.2498C9.04535 27.3595 7.37112 25.9911 6.20694 24.0118C5.93415 23.548 5.93066 22.9736 6.19781 22.5066C6.36223 22.2191 6.61368 21.9994 6.90819 21.8729Z" fill="#E33700"/>
<path d="M29.8304 5.14008C29.9433 5.20012 30.0537 5.26281 30.1615 5.32801C30.2706 5.37217 30.3776 5.41861 30.4827 5.46724L29.8304 5.14008Z" fill="#E33700"/>
<path d="M35.108 5.80163C35.1129 5.80692 35.1176 5.81223 35.1224 5.81757C35.2669 5.82942 35.4096 5.86213 35.5458 5.91521L34.7683 5.52404C34.8919 5.59774 35.0066 5.69042 35.108 5.80163Z" fill="#E33700"/>
<path d="M36.1855 9.19743C36.35 9.28202 36.4985 9.39672 36.6224 9.53635C36.8099 9.55167 36.9906 9.60215 37.1561 9.68272L36.1855 9.19743Z" fill="#E33700"/>
<path d="M6.18915 5.4803C6.35129 5.56417 6.49857 5.67784 6.62236 5.81752C6.78627 5.83095 6.94581 5.87119 7.09488 5.93561L6.18915 5.4803Z" fill="#E33700"/>
<path d="M31.4014 8.71476C30.4354 7.03141 28.7452 5.74997 25.9998 5.74997C20.9998 5.74997 18.9998 10.0003 19.4998 14.2506C12.2998 13.8256 7.16642 9.11482 5.49976 6.81255C3.09976 12.763 6.33309 15.5416 7.99976 16.25C6.39976 15.8249 4.33309 15.4271 3.99976 15.25C4.79976 19.5003 8.99976 22.0429 10.4998 22.7513H6.49976C8.49976 26.1516 12.3331 27.5729 13.4998 27.75C10.2998 30.3002 5.33309 30.7207 3.49976 30.7207C23.4998 40.8152 32.9998 23.2826 32.4998 13.1881C32.4998 12.7572 32.4724 12.307 32.4126 11.8505M31.4014 8.71476L33.9998 6.81255L31.7357 9.37504M31.4014 8.71476C31.5243 8.92895 31.6355 9.14965 31.7357 9.37504M31.7357 9.37504C31.9916 9.95099 32.1755 10.5576 32.2986 11.1646M32.2986 11.1646L35.4998 10.5316L32.4126 11.8505M32.2986 11.1646C32.345 11.3937 32.3829 11.6229 32.4126 11.8505" stroke="#FF5B18" stroke-width="3" stroke-linejoin="round"/>
</svg>
